<svg width="279" height="318" viewBox="0 0 279 318" fill="none" xmlns="http://www.w3.org/2000/svg">
<path d="M167.293 267.306C171.353 260.748 186.345 251.413 205.397 242.945C225.073 234.2 242.771 205.779 249.747 191.099C254.119 180.897 259.616 152.496 246.623 120.514C242.771 109.062 229.258 82.1605 206.021 66.1695L195.714 59.2983" stroke="#1363DE" stroke-width="3" stroke-linecap="round"/>
<mask id="path-2-inside-1_294_347" fill="#1363DE">
<path d="M195.641 247.98C200.092 244.221 206.038 242.26 212.275 243.036C218.512 243.813 223.795 247.174 227.188 251.91C222.737 255.668 216.791 257.63 210.555 256.854C204.317 256.077 199.033 252.716 195.641 247.98Z"/>
</mask>
<path d="M195.641 247.98C200.092 244.221 206.038 242.26 212.275 243.036C218.512 243.813 223.795 247.174 227.188 251.91C222.737 255.668 216.791 257.63 210.555 256.854C204.317 256.077 199.033 252.716 195.641 247.98Z" fill="#1363DE"/>
<path d="M195.641 247.98L194.995 247.216L194.29 247.812L194.828 248.563L195.641 247.98ZM212.275 243.036L212.398 242.044L212.398 242.044L212.275 243.036ZM227.188 251.91L227.833 252.674L228.538 252.078L228.001 251.327L227.188 251.91ZM210.555 256.854L210.431 257.846L210.431 257.846L210.555 256.854ZM195.641 247.98L196.286 248.744C200.533 245.158 206.202 243.288 212.151 244.029L212.275 243.036L212.398 242.044C205.873 241.231 199.65 243.285 194.995 247.216L195.641 247.98ZM212.275 243.036L212.151 244.029C218.1 244.77 223.138 247.973 226.375 252.492L227.188 251.91L228.001 251.327C224.452 246.374 218.924 242.857 212.398 242.044L212.275 243.036ZM227.188 251.91L226.543 251.146C222.296 254.732 216.626 256.602 210.678 255.861L210.555 256.854L210.431 257.846C216.956 258.659 223.178 256.605 227.833 252.674L227.188 251.91ZM210.555 256.854L210.678 255.861C204.729 255.12 199.691 251.917 196.454 247.398L195.641 247.98L194.828 248.563C198.376 253.516 203.905 257.033 210.431 257.846L210.555 256.854Z" fill="#1363DE" mask="url(#path-2-inside-1_294_347)"/>
<mask id="path-4-inside-2_294_347" fill="#1363DE">
<path d="M196.082 248.422C192.224 244.056 190.13 238.155 190.767 231.901C191.404 225.648 194.647 220.292 199.306 216.794C203.163 221.16 205.256 227.061 204.619 233.313C203.982 239.566 200.741 244.924 196.082 248.422Z"/>
</mask>
<path d="M196.082 248.422C192.224 244.056 190.13 238.155 190.767 231.901C191.404 225.648 194.647 220.292 199.306 216.794C203.163 221.16 205.256 227.061 204.619 233.313C203.982 239.566 200.741 244.924 196.082 248.422Z" fill="#1363DE"/>
<path d="M196.082 248.422L195.333 249.084L195.944 249.776L196.683 249.222L196.082 248.422ZM190.767 231.901L189.772 231.8L189.772 231.8L190.767 231.901ZM199.306 216.794L200.055 216.132L199.444 215.44L198.705 215.994L199.306 216.794ZM204.619 233.313L205.614 233.415L205.614 233.415L204.619 233.313ZM196.082 248.422L196.832 247.76C193.151 243.594 191.154 237.967 191.762 232.003L190.767 231.901L189.772 231.8C189.105 238.342 191.298 244.518 195.333 249.084L196.082 248.422ZM190.767 231.901L191.762 232.003C192.37 226.039 195.461 220.931 199.906 217.593L199.306 216.794L198.705 215.994C193.833 219.652 190.439 225.258 189.772 231.8L190.767 231.901ZM199.306 216.794L198.556 217.456C202.236 221.621 204.232 227.248 203.624 233.212L204.619 233.313L205.614 233.415C206.281 226.873 204.089 220.698 200.055 216.132L199.306 216.794ZM204.619 233.313L203.624 233.212C203.016 239.175 199.927 244.285 195.482 247.622L196.082 248.422L196.683 249.222C201.555 245.563 204.947 239.956 205.614 233.415L204.619 233.313Z" fill="#1363DE" mask="url(#path-4-inside-2_294_347)"/>
<mask id="path-6-inside-3_294_347" fill="#1363DE">
<path d="M215.396 237.261C218.893 233.468 223.903 231.09 229.468 231.086C235.034 231.083 240.045 233.454 243.547 237.242C240.05 241.034 235.041 243.412 229.476 243.415C223.911 243.419 218.898 241.048 215.396 237.261Z"/>
</mask>
<path d="M215.396 237.261C218.893 233.468 223.903 231.09 229.468 231.086C235.034 231.083 240.045 233.454 243.547 237.242C240.05 241.034 235.041 243.412 229.476 243.415C223.911 243.419 218.898 241.048 215.396 237.261Z" fill="#1363DE"/>
<path d="M215.396 237.261L214.661 236.583L214.035 237.262L214.662 237.94L215.396 237.261ZM229.468 231.086L229.468 230.086L229.468 230.086L229.468 231.086ZM243.547 237.242L244.282 237.92L244.908 237.241L244.281 236.563L243.547 237.242ZM229.476 243.415L229.476 244.415L229.477 244.415L229.476 243.415ZM215.396 237.261L216.132 237.939C219.448 234.342 224.194 232.09 229.469 232.086L229.468 231.086L229.468 230.086C223.611 230.09 218.339 232.594 214.661 236.583L215.396 237.261ZM229.468 231.086L229.469 232.086C234.744 232.083 239.492 234.329 242.813 237.921L243.547 237.242L244.281 236.563C240.598 232.579 235.324 230.082 229.468 230.086L229.468 231.086ZM243.547 237.242L242.812 236.564C239.496 240.16 234.75 242.412 229.475 242.415L229.476 243.415L229.477 244.415C235.332 244.411 240.604 241.908 244.282 237.92L243.547 237.242ZM229.476 243.415L229.475 242.415C224.201 242.419 219.451 240.173 216.131 236.582L215.396 237.261L214.662 237.94C218.346 241.924 223.621 244.419 229.476 244.415L229.476 243.415Z" fill="#1363DE" mask="url(#path-6-inside-3_294_347)"/>
<mask id="path-8-inside-4_294_347" fill="#1363DE">
<path d="M215.42 236.894C211.539 233.494 209.035 228.548 208.889 222.985C208.743 217.421 210.986 212.35 214.683 208.753C218.563 212.152 221.068 217.098 221.214 222.661C221.359 228.224 219.117 233.296 215.42 236.894Z"/>
</mask>
<path d="M215.42 236.894C211.539 233.494 209.035 228.548 208.889 222.985C208.743 217.421 210.986 212.35 214.683 208.753C218.563 212.152 221.068 217.098 221.214 222.661C221.359 228.224 219.117 233.296 215.42 236.894Z" fill="#1363DE"/>
<path d="M215.42 236.894L214.761 237.646L215.456 238.254L216.117 237.61L215.42 236.894ZM208.889 222.985L207.889 223.011L207.889 223.011L208.889 222.985ZM214.683 208.753L215.342 208.001L214.648 207.392L213.986 208.036L214.683 208.753ZM221.214 222.661L222.213 222.635L222.213 222.635L221.214 222.661ZM215.42 236.894L216.079 236.141C212.399 232.918 210.027 228.231 209.888 222.958L208.889 222.985L207.889 223.011C208.043 228.865 210.679 234.071 214.761 237.646L215.42 236.894ZM208.889 222.985L209.888 222.958C209.75 217.685 211.875 212.881 215.381 209.469L214.683 208.753L213.986 208.036C210.097 211.82 207.736 217.156 207.889 223.011L208.889 222.985ZM214.683 208.753L214.024 209.505C217.703 212.728 220.076 217.414 220.214 222.687L221.214 222.661L222.213 222.635C222.06 216.781 219.423 211.576 215.342 208.001L214.683 208.753ZM221.214 222.661L220.214 222.687C220.352 227.96 218.228 232.766 214.723 236.177L215.42 236.894L216.117 237.61C220.006 233.826 222.367 228.489 222.213 222.635L221.214 222.661Z" fill="#1363DE" mask="url(#path-8-inside-4_294_347)"/>
<mask id="path-10-inside-5_294_347" fill="#1363DE">
<path d="M229.132 223.813C232.23 219.689 236.975 216.82 242.512 216.258C248.049 215.696 253.274 217.552 257.138 220.97C254.039 225.093 249.295 227.962 243.759 228.524C238.222 229.086 232.996 227.23 229.132 223.813Z"/>
</mask>
<path d="M229.132 223.813C232.23 219.689 236.975 216.82 242.512 216.258C248.049 215.696 253.274 217.552 257.138 220.97C254.039 225.093 249.295 227.962 243.759 228.524C238.222 229.086 232.996 227.23 229.132 223.813Z" fill="#1363DE"/>
<path d="M229.132 223.813L228.332 223.212L227.778 223.951L228.469 224.562L229.132 223.813ZM242.512 216.258L242.411 215.263L242.411 215.263L242.512 216.258ZM257.138 220.97L257.938 221.57L258.492 220.832L257.801 220.22L257.138 220.97ZM243.759 228.524L243.86 229.519L243.86 229.519L243.759 228.524ZM229.132 223.813L229.931 224.414C232.869 220.503 237.365 217.786 242.613 217.253L242.512 216.258L242.411 215.263C236.585 215.855 231.591 218.874 228.332 223.212L229.132 223.813ZM242.512 216.258L242.613 217.253C247.861 216.72 252.811 218.478 256.476 221.719L257.138 220.97L257.801 220.22C253.736 216.626 248.237 214.671 242.411 215.263L242.512 216.258ZM257.138 220.97L256.339 220.369C253.4 224.279 248.905 226.996 243.658 227.529L243.759 228.524L243.86 229.519C249.685 228.927 254.678 225.908 257.938 221.57L257.138 220.97ZM243.759 228.524L243.658 227.529C238.41 228.062 233.458 226.304 229.794 223.064L229.132 223.813L228.469 224.562C232.534 228.157 238.033 230.11 243.86 229.519L243.759 228.524Z" fill="#1363DE" mask="url(#path-10-inside-5_294_347)"/>
<mask id="path-12-inside-6_294_347" fill="#1363DE">
<path d="M229.964 222.417C225.51 219.815 222.113 215.432 220.916 209.996C219.72 204.561 220.962 199.158 223.911 194.926C228.364 197.528 231.76 201.91 232.957 207.345C234.154 212.78 232.913 218.185 229.964 222.417Z"/>
</mask>
<path d="M229.964 222.417C225.51 219.815 222.113 215.432 220.916 209.996C219.72 204.561 220.962 199.158 223.911 194.926C228.364 197.528 231.76 201.91 232.957 207.345C234.154 212.78 232.913 218.185 229.964 222.417Z" fill="#1363DE"/>
<path d="M229.964 222.417L229.46 223.281L230.257 223.747L230.785 222.989L229.964 222.417ZM220.916 209.996L219.94 210.211L219.94 210.211L220.916 209.996ZM223.911 194.926L224.415 194.062L223.618 193.596L223.09 194.354L223.911 194.926ZM232.957 207.345L233.934 207.13L233.934 207.13L232.957 207.345ZM229.964 222.417L230.469 221.554C226.245 219.086 223.027 214.933 221.893 209.781L220.916 209.996L219.94 210.211C221.199 215.931 224.775 220.543 229.46 223.281L229.964 222.417ZM220.916 209.996L221.893 209.781C220.759 204.63 221.935 199.511 224.731 195.497L223.911 194.926L223.09 194.354C219.989 198.806 218.681 204.492 219.94 210.211L220.916 209.996ZM223.911 194.926L223.406 195.789C227.629 198.257 230.846 202.409 231.981 207.56L232.957 207.345L233.934 207.13C232.674 201.411 229.1 196.8 224.415 194.062L223.911 194.926ZM232.957 207.345L231.981 207.56C233.115 212.712 231.94 217.832 229.144 221.846L229.964 222.417L230.785 222.989C233.887 218.537 235.193 212.849 233.934 207.13L232.957 207.345Z" fill="#1363DE" mask="url(#path-12-inside-6_294_347)"/>
<mask id="path-14-inside-7_294_347" fill="#1363DE">
<path d="M240.238 208.056C242.53 203.435 246.67 199.747 252.011 198.182C257.352 196.617 262.827 197.486 267.252 200.139C264.96 204.76 260.82 208.448 255.48 210.013C250.138 211.579 244.662 210.709 240.238 208.056Z"/>
</mask>
<path d="M240.238 208.056C242.53 203.435 246.67 199.747 252.011 198.182C257.352 196.617 262.827 197.486 267.252 200.139C264.96 204.76 260.82 208.448 255.48 210.013C250.138 211.579 244.662 210.709 240.238 208.056Z" fill="#1363DE"/>
<path d="M240.238 208.056L239.342 207.612L238.932 208.439L239.723 208.914L240.238 208.056ZM252.011 198.182L251.73 197.222L251.729 197.222L252.011 198.182ZM267.252 200.139L268.148 200.584L268.558 199.756L267.766 199.281L267.252 200.139ZM255.48 210.013L255.761 210.973L255.761 210.973L255.48 210.013ZM240.238 208.056L241.133 208.5C243.307 204.119 247.23 200.625 252.292 199.142L252.011 198.182L251.729 197.222C246.11 198.87 241.753 202.751 239.342 207.612L240.238 208.056ZM252.011 198.182L252.292 199.142C257.354 197.658 262.542 198.481 266.738 200.997L267.252 200.139L267.766 199.281C263.113 196.491 257.349 195.575 251.73 197.222L252.011 198.182ZM267.252 200.139L266.356 199.695C264.182 204.076 260.26 207.57 255.198 209.053L255.48 210.013L255.761 210.973C261.38 209.326 265.737 205.444 268.148 200.584L267.252 200.139ZM255.48 210.013L255.198 209.053C250.136 210.537 244.947 209.714 240.752 207.199L240.238 208.056L239.723 208.914C244.377 211.704 250.141 212.62 255.761 210.973L255.48 210.013Z" fill="#1363DE" mask="url(#path-14-inside-7_294_347)"/>
<mask id="path-16-inside-8_294_347" fill="#1363DE">
<path d="M243.158 205.6C238.147 204.373 233.644 201.138 230.949 196.267C228.255 191.398 227.909 185.864 229.531 180.968C234.541 182.195 239.044 185.429 241.738 190.299C244.433 195.169 244.781 200.703 243.158 205.6Z"/>
</mask>
<path d="M243.158 205.6C238.147 204.373 233.644 201.138 230.949 196.267C228.255 191.398 227.909 185.864 229.531 180.968C234.541 182.195 239.044 185.429 241.738 190.299C244.433 195.169 244.781 200.703 243.158 205.6Z" fill="#1363DE"/>
<path d="M243.158 205.6L242.921 206.571L243.817 206.791L244.108 205.914L243.158 205.6ZM230.949 196.267L230.074 196.752L230.074 196.752L230.949 196.267ZM229.531 180.968L229.769 179.997L228.872 179.777L228.582 180.653L229.531 180.968ZM241.738 190.299L242.613 189.815L242.613 189.815L241.738 190.299ZM243.158 205.6L243.396 204.628C238.645 203.465 234.378 200.399 231.824 195.783L230.949 196.267L230.074 196.752C232.909 201.876 237.65 205.28 242.921 206.571L243.158 205.6ZM230.949 196.267L231.824 195.783C229.271 191.168 228.942 185.925 230.48 181.282L229.531 180.968L228.582 180.653C226.875 185.803 227.24 191.627 230.074 196.752L230.949 196.267ZM229.531 180.968L229.293 181.939C234.044 183.103 238.31 186.168 240.863 190.783L241.738 190.299L242.613 189.815C239.779 184.691 235.039 181.288 229.769 179.997L229.531 180.968ZM241.738 190.299L240.863 190.783C243.417 195.399 243.748 200.642 242.209 205.285L243.158 205.6L244.108 205.914C245.814 200.764 245.448 194.939 242.613 189.815L241.738 190.299Z" fill="#1363DE" mask="url(#path-16-inside-8_294_347)"/>
<mask id="path-18-inside-9_294_347" fill="#1363DE">
<path d="M250.537 192.581C252.055 187.65 255.548 183.344 260.567 180.94C265.587 178.536 271.131 178.513 275.925 180.419C274.406 185.349 270.913 189.655 265.895 192.059C260.875 194.463 255.33 194.487 250.537 192.581Z"/>
</mask>
<path d="M250.537 192.581C252.055 187.65 255.548 183.344 260.567 180.94C265.587 178.536 271.131 178.513 275.925 180.419C274.406 185.349 270.913 189.655 265.895 192.059C260.875 194.463 255.33 194.487 250.537 192.581Z" fill="#1363DE"/>
<path d="M250.537 192.581L249.581 192.286L249.309 193.169L250.167 193.51L250.537 192.581ZM260.567 180.94L260.135 180.038L260.135 180.038L260.567 180.94ZM275.925 180.419L276.88 180.714L277.152 179.831L276.294 179.49L275.925 180.419ZM265.895 192.059L266.327 192.961L266.327 192.961L265.895 192.059ZM250.537 192.581L251.492 192.875C252.932 188.2 256.242 184.121 260.999 181.842L260.567 180.94L260.135 180.038C254.854 182.568 251.178 187.101 249.581 192.286L250.537 192.581ZM260.567 180.94L260.999 181.842C265.757 179.563 271.01 179.541 275.555 181.349L275.925 180.419L276.294 179.49C271.253 177.485 265.417 177.508 260.135 180.038L260.567 180.94ZM275.925 180.419L274.969 180.125C273.529 184.799 270.219 188.878 265.463 191.157L265.895 192.059L266.327 192.961C271.608 190.431 275.283 185.899 276.88 180.714L275.925 180.419ZM265.895 192.059L265.463 191.157C260.705 193.436 255.451 193.459 250.906 191.652L250.537 192.581L250.167 193.51C255.209 195.515 261.045 195.491 266.327 192.961L265.895 192.059Z" fill="#1363DE" mask="url(#path-18-inside-9_294_347)"/>
<mask id="path-20-inside-10_294_347" fill="#1363DE">
<path d="M251.811 186.961C246.661 187.263 241.405 185.497 237.397 181.636C233.389 177.775 231.428 172.588 231.537 167.431C236.687 167.129 241.942 168.895 245.95 172.756C249.958 176.617 251.92 181.803 251.811 186.961Z"/>
</mask>
<path d="M251.811 186.961C246.661 187.263 241.405 185.497 237.397 181.636C233.389 177.775 231.428 172.588 231.537 167.431C236.687 167.129 241.942 168.895 245.95 172.756C249.958 176.617 251.92 181.803 251.811 186.961Z" fill="#1363DE"/>
<path d="M251.811 186.961L251.869 187.959L252.791 187.905L252.81 186.982L251.811 186.961ZM237.397 181.636L236.703 182.356L236.703 182.356L237.397 181.636ZM231.537 167.431L231.479 166.432L230.557 166.486L230.537 167.409L231.537 167.431ZM245.95 172.756L246.644 172.036L246.644 172.036L245.95 172.756ZM251.811 186.961L251.752 185.963C246.869 186.249 241.889 184.575 238.09 180.916L237.397 181.636L236.703 182.356C240.92 186.419 246.453 188.277 251.869 187.959L251.811 186.961ZM237.397 181.636L238.09 180.916C234.292 177.256 232.433 172.342 232.537 167.452L231.537 167.431L230.537 167.409C230.423 172.834 232.485 178.293 236.703 182.356L237.397 181.636ZM231.537 167.431L231.596 168.429C236.478 168.143 241.457 169.817 245.256 173.476L245.95 172.756L246.644 172.036C242.426 167.973 236.895 166.115 231.479 166.432L231.537 167.431ZM245.95 172.756L245.256 173.476C249.055 177.136 250.914 182.05 250.811 186.94L251.811 186.961L252.81 186.982C252.925 181.557 250.861 176.099 246.644 172.036L245.95 172.756Z" fill="#1363DE" mask="url(#path-20-inside-10_294_347)"/>
<mask id="path-22-inside-11_294_347" fill="#1363DE">
<path d="M253.335 175.689C253.645 170.927 255.865 166.303 259.866 163.063C263.867 159.824 268.852 158.616 273.574 159.304C273.264 164.065 271.043 168.688 267.043 171.927C263.041 175.167 258.057 176.377 253.335 175.689Z"/>
</mask>
<path d="M253.335 175.689C253.645 170.927 255.865 166.303 259.866 163.063C263.867 159.824 268.852 158.616 273.574 159.304C273.264 164.065 271.043 168.688 267.043 171.927C263.041 175.167 258.057 176.377 253.335 175.689Z" fill="#1363DE"/>
<path d="M253.335 175.689L252.337 175.624L252.277 176.545L253.191 176.678L253.335 175.689ZM259.866 163.063L259.237 162.286L259.237 162.286L259.866 163.063ZM273.574 159.304L274.572 159.369L274.632 158.448L273.718 158.314L273.574 159.304ZM267.043 171.927L267.672 172.705L267.672 172.705L267.043 171.927ZM253.335 175.689L254.333 175.754C254.625 171.258 256.72 166.897 260.495 163.84L259.866 163.063L259.237 162.286C255.009 165.709 252.664 170.595 252.337 175.624L253.335 175.689ZM259.866 163.063L260.495 163.84C264.27 160.784 268.972 159.644 273.43 160.293L273.574 159.304L273.718 158.314C268.732 157.588 263.464 158.863 259.237 162.286L259.866 163.063ZM273.574 159.304L272.576 159.239C272.283 163.734 270.188 168.094 266.413 171.15L267.043 171.927L267.672 172.705C271.899 169.283 274.244 164.397 274.572 159.369L273.574 159.304ZM267.043 171.927L266.413 171.15C262.638 174.207 257.937 175.349 253.479 174.699L253.335 175.689L253.191 176.678C258.177 177.405 263.445 176.127 267.672 172.705L267.043 171.927Z" fill="#1363DE" mask="url(#path-22-inside-11_294_347)"/>
<mask id="path-24-inside-12_294_347" fill="#1363DE">
<path d="M254.559 167.153C250.006 168.583 244.893 168.182 240.427 165.62C235.962 163.058 233.036 158.846 231.973 154.194C236.525 152.764 241.637 153.166 246.102 155.727C250.567 158.289 253.496 162.501 254.559 167.153Z"/>
</mask>
<path d="M254.559 167.153C250.006 168.583 244.893 168.182 240.427 165.62C235.962 163.058 233.036 158.846 231.973 154.194C236.525 152.764 241.637 153.166 246.102 155.727C250.567 158.289 253.496 162.501 254.559 167.153Z" fill="#1363DE"/>
<path d="M254.559 167.153L254.859 168.107L255.739 167.831L255.534 166.93L254.559 167.153ZM240.427 165.62L239.93 166.487L239.93 166.487L240.427 165.62ZM231.973 154.194L231.673 153.24L230.792 153.517L230.998 154.417L231.973 154.194ZM246.102 155.727L246.599 154.86L246.599 154.86L246.102 155.727ZM254.559 167.153L254.259 166.199C249.962 167.549 245.139 167.17 240.925 164.752L240.427 165.62L239.93 166.487C244.647 169.194 250.051 169.618 254.859 168.107L254.559 167.153ZM240.427 165.62L240.925 164.752C236.712 162.335 233.951 158.363 232.947 153.971L231.973 154.194L230.998 154.417C232.12 159.329 235.212 163.78 239.93 166.487L240.427 165.62ZM231.973 154.194L232.272 155.148C236.569 153.799 241.391 154.178 245.604 156.595L246.102 155.727L246.599 154.86C241.882 152.154 236.48 151.73 231.673 153.24L231.973 154.194ZM246.102 155.727L245.604 156.595C249.818 159.012 252.58 162.985 253.584 167.376L254.559 167.153L255.534 166.93C254.411 162.018 251.317 157.567 246.599 154.86L246.102 155.727Z" fill="#1363DE" mask="url(#path-24-inside-12_294_347)"/>
<mask id="path-26-inside-13_294_347" fill="#1363DE">
<path d="M254.008 151.353C249.469 152.826 244.352 152.472 239.862 149.952C235.373 147.431 232.409 143.246 231.303 138.604C235.841 137.132 240.958 137.486 245.446 140.007C249.935 142.527 252.902 146.711 254.008 151.353Z"/>
</mask>
<path d="M254.008 151.353C249.469 152.826 244.352 152.472 239.862 149.952C235.373 147.431 232.409 143.246 231.303 138.604C235.841 137.132 240.958 137.486 245.446 140.007C249.935 142.527 252.902 146.711 254.008 151.353Z" fill="#1363DE"/>
<path d="M254.008 151.353L254.316 152.305L255.195 152.02L254.981 151.122L254.008 151.353ZM239.862 149.952L239.373 150.823L239.373 150.823L239.862 149.952ZM231.303 138.604L230.994 137.652L230.116 137.937L230.33 138.835L231.303 138.604ZM245.446 140.007L245.936 139.135L245.936 139.135L245.446 140.007ZM254.008 151.353L253.699 150.402C249.414 151.792 244.588 151.458 240.352 149.08L239.862 149.952L239.373 150.823C244.115 153.486 249.523 153.859 254.316 152.305L254.008 151.353ZM239.862 149.952L240.352 149.08C236.116 146.701 233.32 142.754 232.275 138.372L231.303 138.604L230.33 138.835C231.498 143.737 234.63 148.16 239.373 150.823L239.862 149.952ZM231.303 138.604L231.611 139.555C235.896 138.166 240.721 138.501 244.957 140.879L245.446 140.007L245.936 139.135C241.194 136.472 235.787 136.098 230.994 137.652L231.303 138.604ZM245.446 140.007L244.957 140.879C249.192 143.257 251.991 147.203 253.035 151.585L254.008 151.353L254.981 151.122C253.813 146.22 250.678 141.798 245.936 139.135L245.446 140.007Z" fill="#1363DE" mask="url(#path-26-inside-13_294_347)"/>
<mask id="path-28-inside-14_294_347" fill="#1363DE">
<path d="M255.447 159.393C254.735 154.675 255.92 149.685 259.139 145.667C262.359 141.65 266.97 139.407 271.731 139.073C272.442 143.791 271.258 148.781 268.039 152.799C264.819 156.816 260.207 159.06 255.447 159.393Z"/>
</mask>
<path d="M255.447 159.393C254.735 154.675 255.92 149.685 259.139 145.667C262.359 141.65 266.97 139.407 271.731 139.073C272.442 143.791 271.258 148.781 268.039 152.799C264.819 156.816 260.207 159.06 255.447 159.393Z" fill="#1363DE"/>
<path d="M255.447 159.393L254.458 159.543L254.596 160.456L255.517 160.391L255.447 159.393ZM259.139 145.667L258.359 145.042L258.359 145.042L259.139 145.667ZM271.731 139.073L272.719 138.924L272.582 138.011L271.661 138.075L271.731 139.073ZM268.039 152.799L268.819 153.424L268.819 153.424L268.039 152.799ZM255.447 159.393L256.436 159.244C255.764 154.79 256.882 150.083 259.92 146.292L259.139 145.667L258.359 145.042C254.958 149.286 253.706 154.56 254.458 159.543L255.447 159.393ZM259.139 145.667L259.92 146.292C262.957 142.502 267.307 140.386 271.801 140.071L271.731 139.073L271.661 138.075C266.634 138.428 261.76 140.798 258.359 145.042L259.139 145.667ZM271.731 139.073L270.742 139.222C271.413 143.676 270.296 148.383 267.258 152.173L268.039 152.799L268.819 153.424C272.22 149.18 273.471 143.907 272.719 138.924L271.731 139.073ZM268.039 152.799L267.258 152.173C264.221 155.964 259.871 158.081 255.377 158.396L255.447 159.393L255.517 160.391C260.544 160.039 265.418 157.668 268.819 153.424L268.039 152.799Z" fill="#1363DE" mask="url(#path-28-inside-14_294_347)"/>
<mask id="path-30-inside-15_294_347" fill="#1363DE">
<path d="M252.323 140.029C251.611 135.311 252.796 130.32 256.015 126.303C259.235 122.285 263.847 120.042 268.608 119.709C269.319 124.427 268.135 129.417 264.916 133.434C261.696 137.452 257.083 139.696 252.323 140.029Z"/>
</mask>
<path d="M252.323 140.029C251.611 135.311 252.796 130.32 256.015 126.303C259.235 122.285 263.847 120.042 268.608 119.709C269.319 124.427 268.135 129.417 264.916 133.434C261.696 137.452 257.083 139.696 252.323 140.029Z" fill="#1363DE"/>
<path d="M252.323 140.029L251.334 140.178L251.472 141.091L252.393 141.027L252.323 140.029ZM256.015 126.303L255.235 125.677L255.235 125.677L256.015 126.303ZM268.608 119.709L269.597 119.56L269.459 118.647L268.538 118.711L268.608 119.709ZM264.916 133.434L265.696 134.06L265.696 134.06L264.916 133.434ZM252.323 140.029L253.312 139.88C252.64 135.426 253.758 130.719 256.796 126.928L256.015 126.303L255.235 125.677C251.834 129.922 250.582 135.195 251.334 140.178L252.323 140.029ZM256.015 126.303L256.796 126.928C259.833 123.137 264.184 121.021 268.678 120.706L268.608 119.709L268.538 118.711C263.511 119.063 258.636 121.433 255.235 125.677L256.015 126.303ZM268.608 119.709L267.619 119.858C268.291 124.312 267.173 129.018 264.136 132.809L264.916 133.434L265.696 134.06C269.097 129.815 270.348 124.542 269.597 119.56L268.608 119.709ZM264.916 133.434L264.136 132.809C261.098 136.6 256.747 138.717 252.253 139.032L252.323 140.029L252.393 141.027C257.42 140.675 262.295 138.304 265.696 134.06L264.916 133.434Z" fill="#1363DE" mask="url(#path-30-inside-15_294_347)"/>
<mask id="path-32-inside-16_294_347" fill="#1363DE">
<path d="M250.766 132.763C246.732 135.312 241.686 136.234 236.713 134.901C231.74 133.568 227.833 130.246 225.614 126.021C229.648 123.473 234.694 122.552 239.666 123.885C244.638 125.217 248.547 128.538 250.766 132.763Z"/>
</mask>
<path d="M250.766 132.763C246.732 135.312 241.686 136.234 236.713 134.901C231.74 133.568 227.833 130.246 225.614 126.021C229.648 123.473 234.694 122.552 239.666 123.885C244.638 125.217 248.547 128.538 250.766 132.763Z" fill="#1363DE"/>
<path d="M250.766 132.763L251.3 133.608L252.081 133.115L251.652 132.298L250.766 132.763ZM236.713 134.901L236.455 135.867L236.455 135.867L236.713 134.901ZM225.614 126.021L225.08 125.176L224.299 125.669L224.729 126.486L225.614 126.021ZM239.666 123.885L239.925 122.919L239.925 122.919L239.666 123.885ZM250.766 132.763L250.232 131.917C246.424 134.323 241.664 135.193 236.972 133.935L236.713 134.901L236.455 135.867C241.708 137.275 247.04 136.3 251.3 133.608L250.766 132.763ZM236.713 134.901L236.972 133.935C232.28 132.678 228.594 129.545 226.499 125.556L225.614 126.021L224.729 126.486C227.072 130.947 231.201 134.459 236.455 135.867L236.713 134.901ZM225.614 126.021L226.148 126.867C229.956 124.462 234.715 123.593 239.407 124.851L239.666 123.885L239.925 122.919C234.672 121.511 229.34 122.485 225.08 125.176L225.614 126.021ZM239.666 123.885L239.407 124.851C244.099 126.108 247.786 129.24 249.881 133.228L250.766 132.763L251.652 132.298C249.308 127.837 245.178 124.327 239.925 122.919L239.666 123.885Z" fill="#1363DE" mask="url(#path-32-inside-16_294_347)"/>
<mask id="path-34-inside-17_294_347" fill="#1363DE">
<path d="M248.598 124.487C246.915 120.022 247.028 114.894 249.335 110.292C251.643 105.689 255.684 102.531 260.27 101.208C261.953 105.673 261.84 110.801 259.532 115.403C257.225 120.005 253.184 123.165 248.598 124.487Z"/>
</mask>
<path d="M248.598 124.487C246.915 120.022 247.028 114.894 249.335 110.292C251.643 105.689 255.684 102.531 260.27 101.208C261.953 105.673 261.84 110.801 259.532 115.403C257.225 120.005 253.184 123.165 248.598 124.487Z" fill="#1363DE"/>
<path d="M248.598 124.487L247.663 124.84L247.988 125.704L248.876 125.448L248.598 124.487ZM249.335 110.292L248.441 109.843L248.441 109.844L249.335 110.292ZM260.27 101.208L261.206 100.856L260.88 99.9916L259.993 100.247L260.27 101.208ZM259.532 115.403L260.426 115.851L260.426 115.851L259.532 115.403ZM248.598 124.487L249.534 124.134C247.945 119.919 248.052 115.082 250.229 110.74L249.335 110.292L248.441 109.844C246.004 114.706 245.885 120.125 247.663 124.84L248.598 124.487ZM249.335 110.292L250.229 110.74C252.406 106.397 256.218 103.417 260.547 102.169L260.27 101.208L259.993 100.247C255.151 101.644 250.879 104.981 248.441 109.843L249.335 110.292ZM260.27 101.208L259.334 101.561C260.923 105.776 260.815 110.612 258.639 114.954L259.532 115.403L260.426 115.851C262.864 110.989 262.983 105.571 261.206 100.856L260.27 101.208ZM259.532 115.403L258.639 114.954C256.461 119.297 252.65 122.278 248.321 123.526L248.598 124.487L248.876 125.448C253.718 124.052 257.989 120.713 260.426 115.851L259.532 115.403Z" fill="#1363DE" mask="url(#path-34-inside-17_294_347)"/>
<mask id="path-36-inside-18_294_347" fill="#1363DE">
<path d="M244.49 115.131C240.405 117.597 235.341 118.415 230.397 116.981C225.452 115.546 221.614 112.144 219.482 107.875C223.567 105.41 228.63 104.593 233.574 106.027C238.519 107.461 242.358 110.862 244.49 115.131Z"/>
</mask>
<path d="M244.49 115.131C240.405 117.597 235.341 118.415 230.397 116.981C225.452 115.546 221.614 112.144 219.482 107.875C223.567 105.41 228.63 104.593 233.574 106.027C238.519 107.461 242.358 110.862 244.49 115.131Z" fill="#1363DE"/>
<path d="M244.49 115.131L245.007 115.987L245.798 115.51L245.385 114.684L244.49 115.131ZM230.397 116.981L230.118 117.941L230.118 117.941L230.397 116.981ZM219.482 107.875L218.965 107.019L218.175 107.496L218.587 108.322L219.482 107.875ZM233.574 106.027L233.853 105.067L233.853 105.067L233.574 106.027ZM244.49 115.131L243.974 114.275C240.117 116.602 235.34 117.374 230.675 116.02L230.397 116.981L230.118 117.941C235.342 119.457 240.692 118.591 245.007 115.987L244.49 115.131ZM230.397 116.981L230.675 116.02C226.01 114.667 222.389 111.459 220.376 107.428L219.482 107.875L218.587 108.322C220.839 112.83 224.894 116.426 230.118 117.941L230.397 116.981ZM219.482 107.875L219.998 108.731C223.855 106.405 228.631 105.634 233.296 106.987L233.574 106.027L233.853 105.067C228.63 103.551 223.28 104.416 218.965 107.019L219.482 107.875ZM233.574 106.027L233.296 106.987C237.961 108.341 241.583 111.548 243.596 115.578L244.49 115.131L245.385 114.684C243.133 110.176 239.076 106.582 233.853 105.067L233.574 106.027Z" fill="#1363DE" mask="url(#path-36-inside-18_294_347)"/>
<mask id="path-38-inside-19_294_347" fill="#1363DE">
<path d="M241.44 108.957C239.077 104.811 238.386 99.7287 239.943 94.8217C241.5 89.9148 244.995 86.1617 249.316 84.1366C251.678 88.2825 252.37 93.3641 250.813 98.271C249.256 103.178 245.761 106.932 241.44 108.957Z"/>
</mask>
<path d="M241.44 108.957C239.077 104.811 238.386 99.7287 239.943 94.8217C241.5 89.9148 244.995 86.1617 249.316 84.1366C251.678 88.2825 252.37 93.3641 250.813 98.271C249.256 103.178 245.761 106.932 241.44 108.957Z" fill="#1363DE"/>
<path d="M241.44 108.957L240.571 109.452L241.028 110.254L241.864 109.862L241.44 108.957ZM239.943 94.8217L238.99 94.5192L238.99 94.5192L239.943 94.8217ZM249.316 84.1366L250.185 83.6415L249.728 82.8392L248.892 83.2311L249.316 84.1366ZM250.813 98.271L251.766 98.5734L251.766 98.5734L250.813 98.271ZM241.44 108.957L242.309 108.462C240.078 104.548 239.427 99.7542 240.896 95.1241L239.943 94.8217L238.99 94.5192C237.345 99.7033 238.076 105.074 240.571 109.452L241.44 108.957ZM239.943 94.8217L240.896 95.1241C242.365 90.4943 245.662 86.9538 249.74 85.0421L249.316 84.1366L248.892 83.2311C244.329 85.3696 240.635 89.3353 238.99 94.5192L239.943 94.8217ZM249.316 84.1366L248.447 84.6317C250.677 88.5454 251.329 93.3387 249.86 97.9685L250.813 98.271L251.766 98.5734C253.411 93.3895 252.68 88.0195 250.185 83.6415L249.316 84.1366ZM250.813 98.271L249.86 97.9685C248.391 102.599 245.094 106.14 241.016 108.051L241.44 108.957L241.864 109.862C246.427 107.724 250.121 103.758 251.766 98.5734L250.813 98.271Z" fill="#1363DE" mask="url(#path-38-inside-19_294_347)"/>
<mask id="path-40-inside-20_294_347" fill="#1363DE">
<path d="M235.934 98.6589C232.151 101.567 227.211 102.949 222.137 102.079C217.063 101.208 212.867 98.2585 210.269 94.2554C214.053 91.3477 218.992 89.9672 224.065 90.8375C229.139 91.7079 233.337 94.656 235.934 98.6589Z"/>
</mask>
<path d="M235.934 98.6589C232.151 101.567 227.211 102.949 222.137 102.079C217.063 101.208 212.867 98.2585 210.269 94.2554C214.053 91.3477 218.992 89.9672 224.065 90.8375C229.139 91.7079 233.337 94.656 235.934 98.6589Z" fill="#1363DE"/>
<path d="M235.934 98.6589L236.544 99.4517L237.276 98.889L236.773 98.1145L235.934 98.6589ZM222.137 102.079L221.968 103.064L221.968 103.064L222.137 102.079ZM210.269 94.2554L209.66 93.4625L208.928 94.0252L209.431 94.7998L210.269 94.2554ZM224.065 90.8375L224.234 89.8519L224.234 89.8519L224.065 90.8375ZM235.934 98.6589L235.325 97.8661C231.753 100.612 227.094 101.914 222.306 101.093L222.137 102.079L221.968 103.064C227.329 103.984 232.549 102.523 236.544 99.4517L235.934 98.6589ZM222.137 102.079L222.306 101.093C217.519 100.272 213.561 97.4902 211.108 93.711L210.269 94.2554L209.431 94.7998C212.174 99.0268 216.607 102.144 221.968 103.064L222.137 102.079ZM210.269 94.2554L210.879 95.0483C214.45 92.3034 219.109 91.0019 223.896 91.8231L224.065 90.8375L224.234 89.8519C218.874 88.9324 213.655 90.392 209.66 93.4625L210.269 94.2554ZM224.065 90.8375L223.896 91.8231C228.684 92.6444 232.643 95.4246 235.096 99.2033L235.934 98.6589L236.773 98.1145C234.03 93.8874 229.595 90.7715 224.234 89.8519L224.065 90.8375Z" fill="#1363DE" mask="url(#path-40-inside-20_294_347)"/>
<mask id="path-42-inside-21_294_347" fill="#1363DE">
<path d="M234.078 94.7019C231.348 90.788 230.197 85.7896 231.302 80.7613C232.406 75.7335 235.546 71.6788 239.664 69.2691C242.394 73.1828 243.545 78.1799 242.441 83.2078C241.336 88.2361 238.197 92.2922 234.078 94.7019Z"/>
</mask>
<path d="M234.078 94.7019C231.348 90.788 230.197 85.7896 231.302 80.7613C232.406 75.7335 235.546 71.6788 239.664 69.2691C242.394 73.1828 243.545 78.1799 242.441 83.2078C241.336 88.2361 238.197 92.2922 234.078 94.7019Z" fill="#1363DE"/>
<path d="M234.078 94.7019L233.258 95.274L233.786 96.0313L234.583 95.5651L234.078 94.7019ZM231.302 80.7613L230.325 80.5468L230.325 80.5468L231.302 80.7613ZM239.664 69.2691L240.484 68.697L239.956 67.9396L239.159 68.406L239.664 69.2691ZM242.441 83.2078L243.417 83.4223L243.417 83.4223L242.441 83.2078ZM234.078 94.7019L234.898 94.1299C232.321 90.4351 231.237 85.7202 232.279 80.9758L231.302 80.7613L230.325 80.5468C229.158 85.8589 230.375 91.1409 233.258 95.274L234.078 94.7019ZM231.302 80.7613L232.279 80.9759C233.321 76.232 236.281 72.407 240.169 70.1322L239.664 69.2691L239.159 68.406C234.81 70.9506 231.492 75.235 230.325 80.5468L231.302 80.7613ZM239.664 69.2691L238.844 69.8411C241.421 73.5358 242.506 78.2494 241.464 82.9933L242.441 83.2078L243.417 83.4223C244.584 78.1104 243.367 72.8299 240.484 68.697L239.664 69.2691ZM242.441 83.2078L241.464 82.9933C240.422 87.7377 237.461 91.564 233.573 93.8388L234.078 94.7019L234.583 95.5651C238.933 93.0204 242.251 88.7345 243.417 83.4223L242.441 83.2078Z" fill="#1363DE" mask="url(#path-42-inside-21_294_347)"/>
<mask id="path-44-inside-22_294_347" fill="#1363DE">
<path d="M224.954 82.5783C221.21 79.6205 218.664 75.1687 218.267 70.0361C217.871 64.903 219.705 60.1127 222.952 56.6153C226.696 59.5731 229.242 64.0251 229.638 69.1576C230.034 74.2906 228.201 79.0809 224.954 82.5783Z"/>
</mask>
<path d="M224.954 82.5783C221.21 79.6205 218.664 75.1687 218.267 70.0361C217.871 64.903 219.705 60.1127 222.952 56.6153C226.696 59.5731 229.242 64.0251 229.638 69.1576C230.034 74.2906 228.201 79.0809 224.954 82.5783Z" fill="#1363DE"/>
<path d="M224.954 82.5783L224.335 83.363L225.059 83.9353L225.687 83.2586L224.954 82.5783ZM218.267 70.0361L217.27 70.113L217.27 70.113L218.267 70.0361ZM222.952 56.6153L223.572 55.8306L222.847 55.2583L222.219 55.935L222.952 56.6153ZM229.638 69.1576L230.635 69.0807L230.635 69.0807L229.638 69.1576ZM224.954 82.5783L225.574 81.7935C222.04 79.0014 219.638 74.8019 219.264 69.9591L218.267 70.0361L217.27 70.113C217.689 75.5354 220.38 80.2396 224.335 83.363L224.954 82.5783ZM218.267 70.0361L219.264 69.9591C218.891 65.1159 220.62 60.5973 223.685 57.2957L222.952 56.6153L222.219 55.935C218.79 59.6282 216.852 64.6901 217.27 70.113L218.267 70.0361ZM222.952 56.6153L222.332 57.4C225.866 60.1922 228.267 64.3918 228.641 69.2346L229.638 69.1576L230.635 69.0807C230.216 63.6584 227.526 58.9541 223.572 55.8306L222.952 56.6153ZM229.638 69.1576L228.641 69.2346C229.015 74.0778 227.286 78.5964 224.222 81.8979L224.954 82.5783L225.687 83.2586C229.116 79.5654 231.053 74.5034 230.635 69.0807L229.638 69.1576Z" fill="#1363DE" mask="url(#path-44-inside-22_294_347)"/>
<mask id="path-46-inside-23_294_347" fill="#1363DE">
<path d="M225.677 84.8378C222.056 87.9464 217.199 89.5927 212.085 88.9978C206.971 88.4027 202.622 85.6846 199.812 81.8281C203.432 78.7199 208.289 77.0739 213.403 77.6689C218.517 78.264 222.867 80.981 225.677 84.8378Z"/>
</mask>
<path d="M225.677 84.8378C222.056 87.9464 217.199 89.5927 212.085 88.9978C206.971 88.4027 202.622 85.6846 199.812 81.8281C203.432 78.7199 208.289 77.0739 213.403 77.6689C218.517 78.264 222.867 80.981 225.677 84.8378Z" fill="#1363DE"/>
<path d="M225.677 84.8378L226.329 85.5965L227.029 84.995L226.485 84.2489L225.677 84.8378ZM212.085 88.9978L211.969 89.9911L211.969 89.9911L212.085 88.9978ZM199.812 81.8281L199.16 81.0693L198.46 81.6707L199.003 82.417L199.812 81.8281ZM213.403 77.6689L213.519 76.6756L213.519 76.6756L213.403 77.6689ZM225.677 84.8378L225.026 84.079C221.608 87.0136 217.025 88.5658 212.2 88.0045L212.085 88.9978L211.969 89.9911C217.372 90.6196 222.505 88.8792 226.329 85.5965L225.677 84.8378ZM212.085 88.9978L212.2 88.0045C207.376 87.4431 203.273 84.8798 200.62 81.2391L199.812 81.8281L199.003 82.417C201.971 86.4893 206.567 89.3624 211.969 89.9911L212.085 88.9978ZM199.812 81.8281L200.463 82.5868C203.881 79.6527 208.463 78.1008 213.287 78.6622L213.403 77.6689L213.519 76.6756C208.116 76.047 202.984 77.7871 199.16 81.0693L199.812 81.8281ZM213.403 77.6689L213.287 78.6622C218.112 79.2237 222.216 81.786 224.869 85.4267L225.677 84.8378L226.485 84.2489C223.518 80.1761 218.921 77.3043 213.519 76.6756L213.403 77.6689Z" fill="#1363DE" mask="url(#path-46-inside-23_294_347)"/>
<mask id="path-48-inside-24_294_347" fill="#1363DE">
<path d="M212.843 70.3415C209.463 68.2199 206.944 64.7477 206.151 60.5153C205.359 56.2829 206.452 52.1348 208.836 48.934C212.216 51.0558 214.735 54.5272 215.528 58.7593C216.32 62.9918 215.228 67.1407 212.843 70.3415Z"/>
</mask>
<path d="M212.843 70.3415C209.463 68.2199 206.944 64.7477 206.151 60.5153C205.359 56.2829 206.452 52.1348 208.836 48.934C212.216 51.0558 214.735 54.5272 215.528 58.7593C216.32 62.9918 215.228 67.1407 212.843 70.3415Z" fill="#1363DE"/>
<path d="M212.843 70.3415L212.312 71.1885L213.094 71.6793L213.645 70.9389L212.843 70.3415ZM206.151 60.5153L205.169 60.6993L205.169 60.6993L206.151 60.5153ZM208.836 48.934L209.368 48.0871L208.586 47.5962L208.034 48.3367L208.836 48.934ZM215.528 58.7593L216.51 58.5753L216.51 58.5753L215.528 58.7593ZM212.843 70.3415L213.375 69.4945C210.22 67.5149 207.873 64.278 207.134 60.3313L206.151 60.5153L205.169 60.6993C206.014 65.2174 208.705 68.9248 212.312 71.1885L212.843 70.3415ZM206.151 60.5153L207.134 60.3313C206.396 56.3847 207.413 52.5179 209.638 49.5314L208.836 48.934L208.034 48.3367C205.49 51.7517 204.323 56.1812 205.169 60.6993L206.151 60.5153ZM208.836 48.934L208.304 49.781C211.458 51.7607 213.806 54.997 214.545 58.9433L215.528 58.7593L216.51 58.5753C215.665 54.0574 212.974 50.3508 209.368 48.0871L208.836 48.934ZM215.528 58.7593L214.545 58.9433C215.283 62.8901 214.266 66.7576 212.041 69.7441L212.843 70.3415L213.645 70.9389C216.189 67.5237 217.356 63.0935 216.51 58.5753L215.528 58.7593Z" fill="#1363DE" mask="url(#path-48-inside-24_294_347)"/>
<mask id="path-50-inside-25_294_347" fill="#1363DE">
<path d="M212.37 71.8642C209.54 74.6784 205.589 76.3483 201.287 76.1646C196.985 75.9809 193.19 73.9799 190.61 70.9347C193.441 68.1208 197.391 66.4505 201.693 66.6342C205.995 66.818 209.79 68.8187 212.37 71.8642Z"/>
</mask>
<path d="M212.37 71.8642C209.54 74.6784 205.589 76.3483 201.287 76.1646C196.985 75.9809 193.19 73.9799 190.61 70.9347C193.441 68.1208 197.391 66.4505 201.693 66.6342C205.995 66.818 209.79 68.8187 212.37 71.8642Z" fill="#1363DE"/>
<path d="M212.37 71.8642L213.075 72.5733L213.73 71.9223L213.133 71.2178L212.37 71.8642ZM201.287 76.1646L201.244 77.1637L201.244 77.1637L201.287 76.1646ZM190.61 70.9347L189.905 70.2256L189.251 70.8766L189.847 71.5811L190.61 70.9347ZM201.693 66.6342L201.735 65.6351L201.735 65.6351L201.693 66.6342ZM212.37 71.8642L211.665 71.1551C209.024 73.7809 205.341 75.3368 201.329 75.1656L201.287 76.1646L201.244 77.1637C205.836 77.3598 210.055 75.5759 213.075 72.5733L212.37 71.8642ZM201.287 76.1646L201.329 75.1656C197.318 74.9942 193.781 73.1297 191.373 70.2883L190.61 70.9347L189.847 71.5811C192.6 74.8302 196.652 76.9676 201.244 77.1637L201.287 76.1646ZM190.61 70.9347L191.316 71.6439C193.956 69.0183 197.639 67.462 201.65 67.6333L201.693 66.6342L201.735 65.6351C197.143 65.439 192.925 67.2234 189.905 70.2256L190.61 70.9347ZM201.693 66.6342L201.65 67.6333C205.662 67.8047 209.2 69.669 211.607 72.5106L212.37 71.8642L213.133 71.2178C210.38 67.9683 206.328 65.8313 201.735 65.6351L201.693 66.6342Z" fill="#1363DE" mask="url(#path-50-inside-25_294_347)"/>
<mask id="path-52-inside-26_294_347" fill="#1363DE">
<path d="M197.994 60.4768C194.107 61.3848 189.868 60.7301 186.304 58.314C182.74 55.8979 180.562 52.202 179.966 48.2556C183.853 47.3478 188.092 48.0022 191.656 50.4183C195.22 52.8346 197.398 56.5303 197.994 60.4768Z"/>
</mask>
<path d="M197.994 60.4768C194.107 61.3848 189.868 60.7301 186.304 58.314C182.74 55.8979 180.562 52.202 179.966 48.2556C183.853 47.3478 188.092 48.0022 191.656 50.4183C195.22 52.8346 197.398 56.5303 197.994 60.4768Z" fill="#1363DE"/>
<path d="M197.994 60.4768L198.221 61.4506L199.12 61.2405L198.982 60.3276L197.994 60.4768ZM186.304 58.314L185.742 59.1417L185.742 59.1418L186.304 58.314ZM179.966 48.2556L179.739 47.2818L178.84 47.4918L178.978 48.4048L179.966 48.2556ZM191.656 50.4183L192.217 49.5906L192.217 49.5906L191.656 50.4183ZM197.994 60.4768L197.766 59.503C194.14 60.3502 190.188 59.7393 186.865 57.4863L186.304 58.314L185.742 59.1418C189.547 61.721 194.074 62.4194 198.221 61.4506L197.994 60.4768ZM186.304 58.314L186.865 57.4863C183.541 55.2333 181.511 51.7886 180.955 48.1063L179.966 48.2556L178.978 48.4048C179.613 52.6154 181.938 56.5624 185.742 59.1417L186.304 58.314ZM179.966 48.2556L180.194 49.2294C183.82 48.3823 187.772 48.9931 191.095 51.2461L191.656 50.4183L192.217 49.5906C188.413 47.0113 183.885 46.3132 179.739 47.2818L179.966 48.2556ZM191.656 50.4183L191.095 51.246C194.419 53.4992 196.449 56.9437 197.005 60.626L197.994 60.4768L198.982 60.3276C198.347 56.1169 196.022 52.17 192.217 49.5906L191.656 50.4183Z" fill="#1363DE" mask="url(#path-52-inside-26_294_347)"/>
<path d="M111.293 267.306C107.233 260.747 92.2414 251.412 73.1896 242.944C53.5132 234.199 35.8148 205.778 28.8396 191.098C24.467 180.896 18.9701 152.495 31.9628 120.513C35.8148 109.061 49.328 82.1596 72.565 66.1686L82.8717 59.2975" stroke="#1363DE" stroke-width="3" stroke-linecap="round"/>
<mask id="path-55-inside-27_294_347" fill="#1363DE">
<path d="M82.9471 247.979C78.4961 244.22 72.55 242.259 66.3129 243.036C60.0758 243.813 54.7927 247.173 51.3999 251.909C55.8508 255.668 61.7963 257.63 68.033 256.853C74.2702 256.076 79.5542 252.716 82.9471 247.979Z"/>
</mask>
<path d="M82.9471 247.979C78.4961 244.22 72.55 242.259 66.3129 243.036C60.0758 243.813 54.7927 247.173 51.3999 251.909C55.8508 255.668 61.7963 257.63 68.033 256.853C74.2702 256.076 79.5542 252.716 82.9471 247.979Z" fill="#1363DE"/>
<path d="M82.9471 247.979L83.5923 247.215L84.2977 247.811L83.76 248.562L82.9471 247.979ZM66.3129 243.036L66.1893 242.043L66.1893 242.043L66.3129 243.036ZM51.3999 251.909L50.7547 252.673L50.0492 252.077L50.5869 251.327L51.3999 251.909ZM68.033 256.853L68.1566 257.845L68.1566 257.845L68.033 256.853ZM82.9471 247.979L82.3019 248.743C78.055 245.157 72.3852 243.287 66.4365 244.028L66.3129 243.036L66.1893 242.043C72.7149 241.231 78.9372 243.284 83.5923 247.215L82.9471 247.979ZM66.3129 243.036L66.4365 244.028C60.4879 244.769 55.4501 247.973 52.2128 252.491L51.3999 251.909L50.5869 251.327C54.1354 246.373 59.6637 242.856 66.1893 242.043L66.3129 243.036ZM51.3999 251.909L52.045 251.145C56.2919 254.731 61.9612 256.601 67.9095 255.861L68.033 256.853L68.1566 257.845C61.6313 258.658 55.4096 256.604 50.7547 252.673L51.3999 251.909ZM68.033 256.853L67.9094 255.861C73.8582 255.12 78.8969 251.916 82.1341 247.397L82.9471 247.979L83.76 248.562C80.2115 253.515 74.6823 257.032 68.1566 257.845L68.033 256.853Z" fill="#1363DE" mask="url(#path-55-inside-27_294_347)"/>
<mask id="path-57-inside-28_294_347" fill="#1363DE">
<path d="M82.5054 248.42C86.3631 244.055 88.4579 238.154 87.8207 231.901C87.1834 225.648 83.941 220.291 79.282 216.793C75.4248 221.159 73.3304 227.059 73.9676 233.312C74.6049 239.565 77.8463 244.923 82.5054 248.42Z"/>
</mask>
<path d="M82.5054 248.42C86.3631 244.055 88.4579 238.154 87.8207 231.901C87.1834 225.648 83.941 220.291 79.282 216.793C75.4248 221.159 73.3304 227.059 73.9676 233.312C74.6049 239.565 77.8463 244.923 82.5054 248.42Z" fill="#1363DE"/>
<path d="M82.5054 248.42L83.2548 249.083L82.6434 249.775L81.905 249.22L82.5054 248.42ZM87.8207 231.901L88.8156 231.799L88.8156 231.8L87.8207 231.901ZM79.282 216.793L78.5326 216.131L79.144 215.439L79.8824 215.994L79.282 216.793ZM73.9676 233.312L72.9727 233.413L72.9727 233.413L73.9676 233.312ZM82.5054 248.42L81.756 247.758C85.4369 243.593 87.4335 237.966 86.8259 232.002L87.8207 231.901L88.8156 231.8C89.4822 238.342 87.2893 244.517 83.2548 249.083L82.5054 248.42ZM87.8207 231.901L86.8259 232.002C86.2181 226.039 83.1271 220.931 78.6816 217.593L79.282 216.793L79.8824 215.994C84.755 219.652 88.1488 225.257 88.8156 231.799L87.8207 231.901ZM79.282 216.793L80.0314 217.455C76.3511 221.621 74.3547 227.247 74.9624 233.21L73.9676 233.312L72.9727 233.413C72.3061 226.871 74.4986 220.697 78.5326 216.131L79.282 216.793ZM73.9676 233.312L74.9624 233.21C75.5702 239.174 78.6603 244.283 83.1058 247.621L82.5054 248.42L81.905 249.22C77.0322 245.562 73.6395 239.955 72.9727 233.413L73.9676 233.312Z" fill="#1363DE" mask="url(#path-57-inside-28_294_347)"/>
<mask id="path-59-inside-29_294_347" fill="#1363DE">
<path d="M63.1909 237.26C59.6939 233.467 54.6846 231.089 49.1189 231.085C43.5537 231.082 38.5425 233.453 35.0405 237.241C38.5374 241.033 43.5456 243.411 49.1106 243.415C54.676 243.418 59.6888 241.048 63.1909 237.26Z"/>
</mask>
<path d="M63.1909 237.26C59.6939 233.467 54.6846 231.089 49.1189 231.085C43.5537 231.082 38.5425 233.453 35.0405 237.241C38.5374 241.033 43.5456 243.411 49.1106 243.415C54.676 243.418 59.6888 241.048 63.1909 237.26Z" fill="#1363DE"/>
<path d="M63.1909 237.26L63.9261 236.582L64.552 237.261L63.9252 237.939L63.1909 237.26ZM49.1189 231.085L49.1196 230.085L49.1196 230.085L49.1189 231.085ZM35.0405 237.241L34.3054 237.919L33.6794 237.24L34.3063 236.562L35.0405 237.241ZM49.1106 243.415L49.1099 244.415L49.1099 244.415L49.1106 243.415ZM63.1909 237.26L62.4557 237.938C59.1399 234.342 54.3932 232.089 49.1182 232.085L49.1189 231.085L49.1196 230.085C54.9759 230.089 60.248 232.593 63.9261 236.582L63.1909 237.26ZM49.1189 231.085L49.1183 232.085C43.8438 232.082 39.0955 234.328 35.7748 237.92L35.0405 237.241L34.3063 236.562C37.9896 232.578 43.2635 230.082 49.1196 230.085L49.1189 231.085ZM35.0405 237.241L35.7757 236.563C39.0914 240.159 43.837 242.411 49.1113 242.415L49.1106 243.415L49.1099 244.415C43.2542 244.411 37.9834 241.907 34.3054 237.919L35.0405 237.241ZM49.1106 243.415L49.1113 242.415C54.3861 242.418 59.1361 240.173 62.4567 236.581L63.1909 237.26L63.9252 237.939C60.2416 241.923 54.9659 244.419 49.1099 244.415L49.1106 243.415Z" fill="#1363DE" mask="url(#path-59-inside-29_294_347)"/>
<mask id="path-61-inside-30_294_347" fill="#1363DE">
<path d="M63.1678 236.893C67.0487 233.494 69.5535 228.547 69.6992 222.983C69.8447 217.419 67.6019 212.35 63.9046 208.752C60.0246 212.151 57.52 217.097 57.3743 222.66C57.2286 228.224 59.4705 233.295 63.1678 236.893Z"/>
</mask>
<path d="M63.1678 236.893C67.0487 233.494 69.5535 228.547 69.6992 222.983C69.8447 217.419 67.6019 212.35 63.9046 208.752C60.0246 212.151 57.52 217.097 57.3743 222.66C57.2286 228.224 59.4705 233.295 63.1678 236.893Z" fill="#1363DE"/>
<path d="M63.1678 236.893L63.8267 237.645L63.1322 238.253L62.4704 237.609L63.1678 236.893ZM69.6992 222.983L70.6988 223.009L70.6988 223.009L69.6992 222.983ZM63.9046 208.752L63.2457 208L63.9402 207.391L64.602 208.035L63.9046 208.752ZM57.3743 222.66L56.3746 222.634L56.3746 222.634L57.3743 222.66ZM63.1678 236.893L62.5089 236.141C66.1888 232.917 68.5614 228.23 68.6995 222.957L69.6992 222.983L70.6988 223.009C70.5455 228.863 67.9086 234.07 63.8267 237.645L63.1678 236.893ZM69.6992 222.983L68.6995 222.957C68.8375 217.684 66.7131 212.88 63.2073 209.469L63.9046 208.752L64.602 208.035C68.4907 211.819 70.852 217.155 70.6988 223.009L69.6992 222.983ZM63.9046 208.752L64.5636 209.504C60.8845 212.727 58.5121 217.414 58.374 222.686L57.3743 222.66L56.3746 222.634C56.528 216.78 59.1647 211.575 63.2457 208L63.9046 208.752ZM57.3743 222.66L58.374 222.686C58.2359 227.959 60.3594 232.765 63.8652 236.176L63.1678 236.893L62.4704 237.609C58.5815 233.826 56.2214 228.488 56.3746 222.634L57.3743 222.66Z" fill="#1363DE" mask="url(#path-61-inside-30_294_347)"/>
<mask id="path-63-inside-31_294_347" fill="#1363DE">
<path d="M49.4542 223.812C46.3554 219.688 41.61 216.819 36.0728 216.257C30.536 215.695 25.3122 217.551 21.4478 220.969C24.5466 225.093 29.2915 227.961 34.8283 228.523C40.3652 229.085 45.5898 227.229 49.4542 223.812Z"/>
</mask>
<path d="M49.4542 223.812C46.3554 219.688 41.61 216.819 36.0728 216.257C30.536 215.695 25.3122 217.551 21.4478 220.969C24.5466 225.093 29.2915 227.961 34.8283 228.523C40.3652 229.085 45.5898 227.229 49.4542 223.812Z" fill="#1363DE"/>
<path d="M49.4542 223.812L50.2537 223.212L50.8083 223.95L50.1166 224.561L49.4542 223.812ZM36.0728 216.257L36.1738 215.262L36.1738 215.262L36.0728 216.257ZM21.4478 220.969L20.6483 221.569L20.0937 220.831L20.7854 220.219L21.4478 220.969ZM34.8283 228.523L34.7273 229.518L34.7273 229.518L34.8283 228.523ZM49.4542 223.812L48.6547 224.413C45.7165 220.502 41.2198 217.785 35.9718 217.252L36.0728 216.257L36.1738 215.262C42.0002 215.853 46.9944 218.873 50.2537 223.212L49.4542 223.812ZM36.0728 216.257L35.9718 217.252C30.7243 216.719 25.7746 218.478 22.1102 221.718L21.4478 220.969L20.7854 220.219C24.8499 216.625 30.3477 214.67 36.1738 215.262L36.0728 216.257ZM21.4478 220.969L22.2473 220.368C25.1855 224.278 29.6817 226.995 34.9294 227.528L34.8283 228.523L34.7273 229.518C28.9013 228.926 23.9076 225.907 20.6483 221.569L21.4478 220.969ZM34.8283 228.523L34.9294 227.528C40.177 228.061 45.1275 226.303 48.7918 223.063L49.4542 223.812L50.1166 224.561C46.052 228.155 40.5533 230.109 34.7273 229.518L34.8283 228.523Z" fill="#1363DE" mask="url(#path-63-inside-31_294_347)"/>
<mask id="path-65-inside-32_294_347" fill="#1363DE">
<path d="M48.6214 222.416C53.0758 219.814 56.4723 215.431 57.6692 209.995C58.8659 204.56 57.6239 199.157 54.675 194.925C50.2214 197.527 46.8254 201.909 45.6286 207.344C44.4317 212.779 45.6724 218.184 48.6214 222.416Z"/>
</mask>
<path d="M48.6214 222.416C53.0758 219.814 56.4723 215.431 57.6692 209.995C58.8659 204.56 57.6239 199.157 54.675 194.925C50.2214 197.527 46.8254 201.909 45.6286 207.344C44.4317 212.779 45.6724 218.184 48.6214 222.416Z" fill="#1363DE"/>
<path d="M48.6214 222.416L49.1259 223.28L48.3287 223.746L47.8009 222.988L48.6214 222.416ZM57.6692 209.995L58.6458 210.21L58.6458 210.21L57.6692 209.995ZM54.675 194.925L54.1704 194.061L54.9677 193.595L55.4955 194.353L54.675 194.925ZM45.6286 207.344L44.652 207.129L44.652 207.129L45.6286 207.344ZM48.6214 222.416L48.1169 221.553C52.3406 219.085 55.5582 214.932 56.6926 209.78L57.6692 209.995L58.6458 210.21C57.3864 215.93 53.811 220.542 49.1259 223.28L48.6214 222.416ZM57.6692 209.995L56.6926 209.78C57.8267 204.629 56.6507 199.51 53.8545 195.496L54.675 194.925L55.4955 194.353C58.5971 198.805 59.905 204.491 58.6458 210.21L57.6692 209.995ZM54.675 194.925L55.1795 195.788C50.9566 198.256 47.7395 202.408 46.6052 207.559L45.6286 207.344L44.652 207.129C45.9113 201.41 49.4862 196.799 54.1704 194.061L54.675 194.925ZM45.6286 207.344L46.6052 207.559C45.4708 212.711 46.6458 217.831 49.4419 221.845L48.6214 222.416L47.8009 222.988C44.6991 218.536 43.3926 212.848 44.652 207.129L45.6286 207.344Z" fill="#1363DE" mask="url(#path-65-inside-32_294_347)"/>
<mask id="path-67-inside-33_294_347" fill="#1363DE">
<path d="M38.3488 208.056C36.0567 203.435 31.9167 199.747 26.5759 198.181C21.2351 196.616 15.7592 197.485 11.3349 200.138C13.6271 204.759 17.7667 208.447 23.1071 210.012C28.4479 211.578 33.9244 210.709 38.3488 208.056Z"/>
</mask>
<path d="M38.3488 208.056C36.0567 203.435 31.9167 199.747 26.5759 198.181C21.2351 196.616 15.7592 197.485 11.3349 200.138C13.6271 204.759 17.7667 208.447 23.1071 210.012C28.4479 211.578 33.9244 210.709 38.3488 208.056Z" fill="#1363DE"/>
<path d="M38.3488 208.056L39.2446 207.612L39.6549 208.439L38.863 208.914L38.3488 208.056ZM26.5759 198.181L26.8572 197.221L26.8572 197.221L26.5759 198.181ZM11.3349 200.138L10.439 200.583L10.0287 199.755L10.8206 199.281L11.3349 200.138ZM23.1071 210.012L22.8258 210.972L22.8258 210.972L23.1071 210.012ZM38.3488 208.056L37.4529 208.501C35.2795 204.118 31.3564 200.624 26.2946 199.141L26.5759 198.181L26.8572 197.221C32.477 198.869 36.8338 202.751 39.2446 207.612L38.3488 208.056ZM26.5759 198.181L26.2946 199.141C21.2328 197.657 16.0444 198.48 11.8491 200.996L11.3349 200.138L10.8206 199.281C15.4741 196.49 21.2373 195.574 26.8572 197.221L26.5759 198.181ZM11.3349 200.138L12.2307 199.694C14.4043 204.076 18.327 207.569 23.3884 209.053L23.1071 210.012L22.8258 210.972C17.2065 209.325 12.85 205.443 10.439 200.583L11.3349 200.138ZM23.1071 210.012L23.3884 209.053C28.4504 210.536 33.6394 209.714 37.8345 207.199L38.3488 208.056L38.863 208.914C34.2094 211.704 28.4455 212.619 22.8258 210.972L23.1071 210.012Z" fill="#1363DE" mask="url(#path-67-inside-33_294_347)"/>
<mask id="path-69-inside-34_294_347" fill="#1363DE">
<path d="M35.4277 205.599C40.4389 204.372 44.9426 201.137 47.6369 196.267C50.331 191.397 50.6783 185.863 49.0557 180.966C44.045 182.193 39.5419 185.428 36.8477 190.298C34.1537 195.168 33.8051 200.702 35.4277 205.599Z"/>
</mask>
<path d="M35.4277 205.599C40.4389 204.372 44.9426 201.137 47.6369 196.267C50.331 191.397 50.6783 185.863 49.0557 180.966C44.045 182.193 39.5419 185.428 36.8477 190.298C34.1537 195.168 33.8051 200.702 35.4277 205.599Z" fill="#1363DE"/>
<path d="M35.4277 205.599L35.6655 206.57L34.7688 206.79L34.4784 205.913L35.4277 205.599ZM47.6369 196.267L48.512 196.751L48.512 196.751L47.6369 196.267ZM49.0557 180.966L48.8177 179.995L49.7145 179.775L50.0049 180.652L49.0557 180.966ZM36.8477 190.298L35.9727 189.814L35.9727 189.814L36.8477 190.298ZM35.4277 205.599L35.1898 204.628C39.9415 203.464 44.2083 200.399 46.7619 195.783L47.6369 196.267L48.512 196.751C45.6769 201.876 40.9363 205.28 35.6655 206.57L35.4277 205.599ZM47.6369 196.267L46.7619 195.783C49.3153 191.167 49.645 185.924 48.1064 181.281L49.0557 180.966L50.0049 180.652C51.7115 185.802 51.3468 191.626 48.512 196.751L47.6369 196.267ZM49.0557 180.966L49.2936 181.937C44.5425 183.101 40.2762 186.167 37.7228 190.782L36.8477 190.298L35.9727 189.814C38.8076 184.69 43.5476 181.286 48.8177 179.995L49.0557 180.966ZM36.8477 190.298L37.7228 190.782C35.1694 195.398 34.8385 200.641 36.3769 205.284L35.4277 205.599L34.4784 205.913C32.7718 200.763 33.138 194.938 35.9727 189.814L36.8477 190.298Z" fill="#1363DE" mask="url(#path-69-inside-34_294_347)"/>
<mask id="path-71-inside-35_294_347" fill="#1363DE">
<path d="M28.0509 192.58C26.5323 187.65 23.0396 183.344 18.0203 180.939C13.0009 178.535 7.45647 178.512 2.66292 180.419C4.18179 185.348 7.67415 189.654 12.6931 192.058C17.7124 194.462 23.2573 194.486 28.0509 192.58Z"/>
</mask>
<path d="M28.0509 192.58C26.5323 187.65 23.0396 183.344 18.0203 180.939C13.0009 178.535 7.45647 178.512 2.66292 180.419C4.18179 185.348 7.67415 189.654 12.6931 192.058C17.7124 194.462 23.2573 194.486 28.0509 192.58Z" fill="#1363DE"/>
<path d="M28.0509 192.58L29.0066 192.285L29.2784 193.168L28.4204 193.509L28.0509 192.58ZM18.0203 180.939L18.4523 180.037L18.4523 180.037L18.0203 180.939ZM2.66292 180.419L1.70726 180.713L1.43537 179.831L2.29336 179.489L2.66292 180.419ZM12.6931 192.058L12.2611 192.96L12.2611 192.96L12.6931 192.058ZM28.0509 192.58L27.0952 192.874C25.6552 188.199 22.3454 184.12 17.5882 181.841L18.0203 180.939L18.4523 180.037C23.7338 182.567 27.4093 187.1 29.0066 192.285L28.0509 192.58ZM18.0203 180.939L17.5883 181.841C12.8311 179.562 7.5778 179.54 3.03248 181.348L2.66292 180.419L2.29336 179.489C7.33515 177.484 13.1707 177.507 18.4523 180.037L18.0203 180.939ZM2.66292 180.419L3.61859 180.124C5.0588 184.799 8.36835 188.878 13.1251 191.156L12.6931 192.058L12.2611 192.96C6.97995 190.43 3.30478 185.898 1.70726 180.713L2.66292 180.419ZM12.6931 192.058L13.1251 191.156C17.8824 193.435 23.1362 193.458 27.6813 191.651L28.0509 192.58L28.4204 193.509C23.3785 195.514 17.5425 195.49 12.2611 192.96L12.6931 192.058Z" fill="#1363DE" mask="url(#path-71-inside-35_294_347)"/>
<mask id="path-73-inside-36_294_347" fill="#1363DE">
<path d="M26.7773 186.96C31.9271 187.262 37.183 185.496 41.1912 181.635C45.1993 177.774 47.1599 172.587 47.0507 167.43C41.9012 167.128 36.646 168.894 32.6381 172.755C28.63 176.616 26.668 181.803 26.7773 186.96Z"/>
</mask>
<path d="M26.7773 186.96C31.9271 187.262 37.183 185.496 41.1912 181.635C45.1993 177.774 47.1599 172.587 47.0507 167.43C41.9012 167.128 36.646 168.894 32.6381 172.755C28.63 176.616 26.668 181.803 26.7773 186.96Z" fill="#1363DE"/>
<path d="M26.7773 186.96L26.7188 187.959L25.7971 187.905L25.7775 186.981L26.7773 186.96ZM41.1912 181.635L41.885 182.355L41.885 182.355L41.1912 181.635ZM47.0507 167.43L47.1091 166.432L48.0309 166.486L48.0504 167.409L47.0507 167.43ZM32.6381 172.755L31.9443 172.035L31.9444 172.035L32.6381 172.755ZM26.7773 186.96L26.8358 185.962C31.7189 186.248 36.6986 184.574 40.4974 180.915L41.1912 181.635L41.885 182.355C37.6674 186.418 32.1354 188.276 26.7188 187.959L26.7773 186.96ZM41.1912 181.635L40.4974 180.915C44.2961 177.255 46.1545 172.342 46.0509 167.451L47.0507 167.43L48.0504 167.409C48.1654 172.833 46.1025 178.292 41.885 182.355L41.1912 181.635ZM47.0507 167.43L46.9922 168.428C42.1094 168.142 37.1304 169.816 33.3319 173.475L32.6381 172.755L31.9444 172.035C36.1616 167.972 41.6929 166.115 47.1091 166.432L47.0507 167.43ZM32.6381 172.755L33.3319 173.475C29.533 177.135 27.6734 182.049 27.777 186.939L26.7773 186.96L25.7775 186.981C25.6626 181.557 27.7269 176.098 31.9443 172.035L32.6381 172.755Z" fill="#1363DE" mask="url(#path-73-inside-36_294_347)"/>
<mask id="path-75-inside-37_294_347" fill="#1363DE">
<path d="M25.2526 175.688C24.943 170.926 22.7231 166.302 18.7218 163.062C14.7203 159.823 9.73596 158.615 5.01364 159.303C5.3238 164.064 7.54421 168.687 11.545 171.927C15.5463 175.166 20.5305 176.376 25.2526 175.688Z"/>
</mask>
<path d="M25.2526 175.688C24.943 170.926 22.7231 166.302 18.7218 163.062C14.7203 159.823 9.73596 158.615 5.01364 159.303C5.3238 164.064 7.54421 168.687 11.545 171.927C15.5463 175.166 20.5305 176.376 25.2526 175.688Z" fill="#1363DE"/>
<path d="M25.2526 175.688L26.2505 175.623L26.3104 176.544L25.3968 176.678L25.2526 175.688ZM18.7218 163.062L19.351 162.285L19.351 162.285L18.7218 163.062ZM5.01364 159.303L4.01575 159.368L3.95573 158.447L4.86943 158.314L5.01364 159.303ZM11.545 171.927L10.9157 172.704L10.9157 172.704L11.545 171.927ZM25.2526 175.688L24.2547 175.753C23.9624 171.257 21.8679 166.896 18.0925 163.84L18.7218 163.062L19.351 162.285C23.5783 165.708 25.9235 170.594 26.2505 175.623L25.2526 175.688ZM18.7218 163.062L18.0925 163.84C14.3172 160.783 9.61594 159.643 5.15784 160.293L5.01364 159.303L4.86943 158.314C9.85598 157.587 15.1235 158.862 19.351 162.285L18.7218 163.062ZM5.01364 159.303L6.01152 159.238C6.30432 163.733 8.39932 168.093 12.1742 171.149L11.545 171.927L10.9157 172.704C6.68909 169.282 4.34329 164.396 4.01575 159.368L5.01364 159.303ZM11.545 171.927L12.1742 171.149C15.9496 174.206 20.6509 175.348 25.1085 174.698L25.2526 175.688L25.3968 176.678C20.4102 177.404 15.1429 176.126 10.9157 172.704L11.545 171.927Z" fill="#1363DE" mask="url(#path-75-inside-37_294_347)"/>
<mask id="path-77-inside-38_294_347" fill="#1363DE">
<path d="M24.029 167.152C28.5815 168.582 33.6942 168.181 38.1596 165.619C42.6251 163.057 45.5513 158.846 46.6144 154.194C42.0623 152.764 36.95 153.165 32.4852 155.727C28.0198 158.289 25.0921 162.5 24.029 167.152Z"/>
</mask>
<path d="M24.029 167.152C28.5815 168.582 33.6942 168.181 38.1596 165.619C42.6251 163.057 45.5513 158.846 46.6144 154.194C42.0623 152.764 36.95 153.165 32.4852 155.727C28.0198 158.289 25.0921 162.5 24.029 167.152Z" fill="#1363DE"/>
<path d="M24.029 167.152L23.7293 168.106L22.8484 167.83L23.0541 166.93L24.029 167.152ZM38.1596 165.619L38.6572 166.487L38.6572 166.487L38.1596 165.619ZM46.6144 154.194L46.914 153.239L47.795 153.516L47.5893 154.416L46.6144 154.194ZM32.4852 155.727L31.9876 154.86L31.9876 154.86L32.4852 155.727ZM24.029 167.152L24.3287 166.198C28.6262 167.548 33.4487 167.169 37.6619 164.752L38.1596 165.619L38.6572 166.487C33.9397 169.193 28.5367 169.617 23.7293 168.106L24.029 167.152ZM38.1596 165.619L37.6619 164.752C41.8752 162.335 44.6359 158.362 45.6396 153.971L46.6144 154.194L47.5893 154.416C46.4667 159.329 43.375 163.78 38.6572 166.487L38.1596 165.619ZM46.6144 154.194L46.3148 155.148C42.0176 153.798 37.1955 154.177 32.9828 156.594L32.4852 155.727L31.9876 154.86C36.7046 152.153 42.1071 151.73 46.914 153.239L46.6144 154.194ZM32.4852 155.727L32.9829 156.594C28.7695 159.012 26.0074 162.984 25.0039 167.375L24.029 167.152L23.0541 166.93C24.1768 162.017 27.2701 157.566 31.9876 154.86L32.4852 155.727Z" fill="#1363DE" mask="url(#path-77-inside-38_294_347)"/>
<mask id="path-79-inside-39_294_347" fill="#1363DE">
<path d="M24.5788 151.353C29.1181 152.825 34.2352 152.471 38.7243 149.951C43.2132 147.43 46.1784 143.246 47.2845 138.604C42.7455 137.132 37.6293 137.485 33.1404 140.006C28.6513 142.526 25.685 146.71 24.5788 151.353Z"/>
</mask>
<path d="M24.5788 151.353C29.1181 152.825 34.2352 152.471 38.7243 149.951C43.2132 147.43 46.1784 143.246 47.2845 138.604C42.7455 137.132 37.6293 137.485 33.1404 140.006C28.6513 142.526 25.685 146.71 24.5788 151.353Z" fill="#1363DE"/>
<path d="M24.5788 151.353L24.2703 152.304L23.392 152.019L23.606 151.121L24.5788 151.353ZM38.7243 149.951L39.2139 150.823L39.2139 150.823L38.7243 149.951ZM47.2845 138.604L47.593 137.652L48.4713 137.937L48.2573 138.835L47.2845 138.604ZM33.1404 140.006L32.6508 139.134L32.6508 139.134L33.1404 140.006ZM24.5788 151.353L24.8873 150.401C29.1725 151.791 33.9991 151.457 38.2347 149.079L38.7243 149.951L39.2139 150.823C34.4712 153.486 29.0637 153.858 24.2703 152.304L24.5788 151.353ZM38.7243 149.951L38.2347 149.079C42.47 146.701 45.2675 142.754 46.3118 138.372L47.2845 138.604L48.2573 138.835C47.0892 143.737 43.9563 148.16 39.2139 150.823L38.7243 149.951ZM47.2845 138.604L46.976 139.555C42.6911 138.165 37.8654 138.5 33.63 140.878L33.1404 140.006L32.6508 139.134C37.3932 136.471 42.7998 136.098 47.593 137.652L47.2845 138.604ZM33.1404 140.006L33.63 140.878C29.3943 143.256 26.5958 147.202 25.5516 151.584L24.5788 151.353L23.606 151.121C24.7741 146.219 27.9083 141.797 32.6508 139.134L33.1404 140.006Z" fill="#1363DE" mask="url(#path-79-inside-39_294_347)"/>
<mask id="path-81-inside-40_294_347" fill="#1363DE">
<path d="M23.1409 159.392C23.8525 154.674 22.6678 149.684 19.4483 145.666C16.2287 141.648 11.6163 139.405 6.85566 139.072C6.14419 143.79 7.32842 148.78 10.5476 152.798C13.7673 156.815 18.3801 159.059 23.1409 159.392Z"/>
</mask>
<path d="M23.1409 159.392C23.8525 154.674 22.6678 149.684 19.4483 145.666C16.2287 141.648 11.6163 139.405 6.85566 139.072C6.14419 143.79 7.32842 148.78 10.5476 152.798C13.7673 156.815 18.3801 159.059 23.1409 159.392Z" fill="#1363DE"/>
<path d="M23.1409 159.392L24.1297 159.542L23.992 160.455L23.071 160.39L23.1409 159.392ZM19.4483 145.666L20.2287 145.041L20.2287 145.041L19.4483 145.666ZM6.85566 139.072L5.86684 138.923L6.0045 138.01L6.92553 138.074L6.85566 139.072ZM10.5476 152.798L9.76724 153.423L9.76723 153.423L10.5476 152.798ZM23.1409 159.392L22.1521 159.243C22.8239 154.789 21.7057 150.082 18.668 146.291L19.4483 145.666L20.2287 145.041C23.6299 149.285 24.8812 154.559 24.1297 159.542L23.1409 159.392ZM19.4483 145.666L18.668 146.291C15.6302 142.501 11.2799 140.384 6.7858 140.069L6.85566 139.072L6.92553 138.074C11.9527 138.426 16.8273 140.796 20.2287 145.041L19.4483 145.666ZM6.85566 139.072L7.84448 139.221C7.17285 143.675 8.29055 148.382 11.328 152.172L10.5476 152.798L9.76723 153.423C6.36628 149.179 5.11553 143.905 5.86684 138.923L6.85566 139.072ZM10.5476 152.798L11.3279 152.172C14.3659 155.963 18.7166 158.08 23.2107 158.395L23.1409 159.392L23.071 160.39C18.0437 160.038 13.1687 157.667 9.76724 153.423L10.5476 152.798Z" fill="#1363DE" mask="url(#path-81-inside-40_294_347)"/>
<mask id="path-83-inside-41_294_347" fill="#1363DE">
<path d="M26.2639 140.028C26.9756 135.31 25.7908 130.319 22.5714 126.302C19.3518 122.284 14.7393 120.041 9.97871 119.708C9.26724 124.426 10.4515 129.416 13.6706 133.433C16.8903 137.451 21.5032 139.695 26.2639 140.028Z"/>
</mask>
<path d="M26.2639 140.028C26.9756 135.31 25.7908 130.319 22.5714 126.302C19.3518 122.284 14.7393 120.041 9.97871 119.708C9.26724 124.426 10.4515 129.416 13.6706 133.433C16.8903 137.451 21.5032 139.695 26.2639 140.028Z" fill="#1363DE"/>
<path d="M26.2639 140.028L27.2527 140.177L27.1151 141.09L26.1941 141.026L26.2639 140.028ZM22.5714 126.302L23.3517 125.677L23.3517 125.677L22.5714 126.302ZM9.97871 119.708L8.98989 119.559L9.12755 118.646L10.0486 118.71L9.97871 119.708ZM13.6706 133.433L12.8903 134.059L12.8903 134.059L13.6706 133.433ZM26.2639 140.028L25.2751 139.879C25.9469 135.425 24.8287 130.718 21.791 126.927L22.5714 126.302L23.3517 125.677C26.7529 129.921 28.0043 135.195 27.2527 140.177L26.2639 140.028ZM22.5714 126.302L21.791 126.927C18.7532 123.136 14.4029 121.02 9.90884 120.705L9.97871 119.708L10.0486 118.71C15.0758 119.062 19.9503 121.432 23.3517 125.677L22.5714 126.302ZM9.97871 119.708L10.9675 119.857C10.2959 124.311 11.4136 129.018 14.451 132.808L13.6706 133.433L12.8903 134.059C9.48933 129.815 8.23858 124.541 8.98989 119.559L9.97871 119.708ZM13.6706 133.433L14.451 132.808C17.4889 136.599 21.8397 138.716 26.3338 139.031L26.2639 140.028L26.1941 141.026C21.1667 140.674 16.2917 138.303 12.8903 134.059L13.6706 133.433Z" fill="#1363DE" mask="url(#path-83-inside-41_294_347)"/>
<mask id="path-85-inside-42_294_347" fill="#1363DE">
<path d="M27.8188 132.762C31.8531 135.311 36.898 136.232 41.8706 134.9C46.8434 133.567 50.7508 130.245 52.9701 126.021C48.936 123.473 43.8915 122.551 38.9195 123.884C33.9468 125.217 30.038 128.538 27.8188 132.762Z"/>
</mask>
<path d="M27.8188 132.762C31.8531 135.311 36.898 136.232 41.8706 134.9C46.8434 133.567 50.7508 130.245 52.9701 126.021C48.936 123.473 43.8915 122.551 38.9195 123.884C33.9468 125.217 30.038 128.538 27.8188 132.762Z" fill="#1363DE"/>
<path d="M27.8188 132.762L27.2848 133.608L26.5042 133.114L26.9335 132.297L27.8188 132.762ZM41.8706 134.9L42.1295 135.866L42.1295 135.866L41.8706 134.9ZM52.9701 126.021L53.5041 125.175L54.2848 125.668L53.8554 126.486L52.9701 126.021ZM38.9195 123.884L38.6606 122.918L38.6606 122.918L38.9195 123.884ZM27.8188 132.762L28.3529 131.917C32.1613 134.322 36.9199 135.191 41.6118 133.934L41.8706 134.9L42.1295 135.866C36.8761 137.273 31.545 136.299 27.2848 133.608L27.8188 132.762ZM41.8706 134.9L41.6118 133.934C46.3037 132.676 49.9898 129.544 52.0848 125.556L52.9701 126.021L53.8554 126.486C51.5119 130.947 47.3832 134.458 42.1295 135.866L41.8706 134.9ZM52.9701 126.021L52.4361 126.866C48.6279 124.461 43.8696 123.593 39.1783 124.85L38.9195 123.884L38.6606 122.918C43.9134 121.51 49.2441 122.485 53.5041 125.175L52.9701 126.021ZM38.9195 123.884L39.1784 124.85C34.4863 126.107 30.799 129.239 28.7041 133.227L27.8188 132.762L26.9335 132.297C29.2771 127.836 33.4072 124.326 38.6606 122.918L38.9195 123.884Z" fill="#1363DE" mask="url(#path-85-inside-42_294_347)"/>
<mask id="path-87-inside-43_294_347" fill="#1363DE">
<path d="M29.9894 124.487C31.6732 120.021 31.5598 114.894 29.2525 110.291C26.9451 105.688 22.9036 102.53 18.3181 101.208C16.6348 105.673 16.7483 110.8 19.0554 115.402C21.3629 120.005 25.4039 123.164 29.9894 124.487Z"/>
</mask>
<path d="M29.9894 124.487C31.6732 120.021 31.5598 114.894 29.2525 110.291C26.9451 105.688 22.9036 102.53 18.3181 101.208C16.6348 105.673 16.7483 110.8 19.0554 115.402C21.3629 120.005 25.4039 123.164 29.9894 124.487Z" fill="#1363DE"/>
<path d="M29.9894 124.487L30.9251 124.84L30.5994 125.703L29.7124 125.448L29.9894 124.487ZM29.2525 110.291L30.1465 109.843L30.1465 109.843L29.2525 110.291ZM18.3181 101.208L17.3823 100.855L17.708 99.991L18.5951 100.247L18.3181 101.208ZM19.0554 115.402L18.1615 115.85L18.1615 115.85L19.0554 115.402ZM29.9894 124.487L29.0538 124.134C30.6432 119.919 30.5356 115.082 28.3586 110.739L29.2525 110.291L30.1465 109.843C32.5841 114.705 32.7031 120.124 30.9251 124.84L29.9894 124.487ZM29.2525 110.291L28.3586 110.739C26.1815 106.396 22.3699 103.417 18.041 102.169L18.3181 101.208L18.5951 100.247C23.4373 101.643 27.7087 104.98 30.1465 109.843L29.2525 110.291ZM18.3181 101.208L19.2538 101.56C17.6648 105.775 17.7725 110.612 19.9494 114.954L19.0554 115.402L18.1615 115.85C15.724 110.988 15.6049 105.57 17.3823 100.855L18.3181 101.208ZM19.0554 115.402L19.9494 114.954C22.1266 119.297 25.9378 122.278 30.2665 123.526L29.9894 124.487L29.7124 125.448C24.8699 124.051 20.5992 120.713 18.1615 115.85L19.0554 115.402Z" fill="#1363DE" mask="url(#path-87-inside-43_294_347)"/>
<mask id="path-89-inside-44_294_347" fill="#1363DE">
<path d="M34.0967 115.13C38.1824 117.595 43.2451 118.413 48.1894 116.979C53.1341 115.545 56.9733 112.144 59.1054 107.874C55.0198 105.41 49.9568 104.592 45.013 106.026C40.0687 107.461 36.2288 110.861 34.0967 115.13Z"/>
</mask>
<path d="M34.0967 115.13C38.1824 117.595 43.2451 118.413 48.1894 116.979C53.1341 115.545 56.9733 112.144 59.1054 107.874C55.0198 105.41 49.9568 104.592 45.013 106.026C40.0687 107.461 36.2288 110.861 34.0967 115.13Z" fill="#1363DE"/>
<path d="M34.0967 115.13L33.5801 115.986L32.7896 115.509L33.2021 114.683L34.0967 115.13ZM48.1894 116.979L48.468 117.94L48.468 117.94L48.1894 116.979ZM59.1054 107.874L59.622 107.018L60.4126 107.495L60.0001 108.321L59.1054 107.874ZM45.013 106.026L44.7344 105.066L44.7344 105.066L45.013 106.026ZM34.0967 115.13L34.6133 114.274C38.4703 116.601 43.2457 117.372 47.9108 116.019L48.1894 116.979L48.468 117.94C43.2446 119.455 37.8946 118.59 33.5801 115.986L34.0967 115.13ZM48.1894 116.979L47.9108 116.019C52.5763 114.665 56.198 111.458 58.2108 107.428L59.1054 107.874L60.0001 108.321C57.7486 112.83 53.6919 116.424 48.468 117.94L48.1894 116.979ZM59.1054 107.874L58.5889 108.731C54.7321 106.404 49.9563 105.633 45.2916 106.987L45.013 106.026L44.7344 105.066C49.9573 103.551 55.3076 104.415 59.622 107.018L59.1054 107.874ZM45.013 106.026L45.2916 106.987C40.6264 108.34 37.004 111.547 34.9914 115.577L34.0967 115.13L33.2021 114.683C35.4536 110.175 39.511 106.581 44.7344 105.066L45.013 106.026Z" fill="#1363DE" mask="url(#path-89-inside-44_294_347)"/>
<mask id="path-91-inside-45_294_347" fill="#1363DE">
<path d="M37.1467 108.956C39.5094 104.81 40.2008 99.7279 38.6437 94.8208C37.0865 89.914 33.5914 86.1608 29.2707 84.1357C26.9082 88.2816 26.2165 93.3632 27.7735 98.2701C29.3306 103.177 32.8258 106.931 37.1467 108.956Z"/>
</mask>
<path d="M37.1467 108.956C39.5094 104.81 40.2008 99.7279 38.6437 94.8208C37.0865 89.914 33.5914 86.1608 29.2707 84.1357C26.9082 88.2816 26.2165 93.3632 27.7735 98.2701C29.3306 103.177 32.8258 106.931 37.1467 108.956Z" fill="#1363DE"/>
<path d="M37.1467 108.956L38.0156 109.451L37.5584 110.253L36.7224 109.862L37.1467 108.956ZM38.6437 94.8208L39.5968 94.5183L39.5968 94.5183L38.6437 94.8208ZM29.2707 84.1357L28.4019 83.6406L28.859 82.8384L29.6951 83.2303L29.2707 84.1357ZM27.7735 98.2701L26.8203 98.5726L26.8203 98.5726L27.7735 98.2701ZM37.1467 108.956L36.2779 108.461C38.5083 104.547 39.1597 99.7533 37.6905 95.1233L38.6437 94.8208L39.5968 94.5183C41.2418 99.7024 40.5106 105.073 38.0156 109.451L37.1467 108.956ZM38.6437 94.8208L37.6905 95.1233C36.2213 90.4935 32.9251 86.9529 28.8463 85.0412L29.2707 84.1357L29.6951 83.2303C34.2578 85.3688 37.9517 89.3344 39.5968 94.5183L38.6437 94.8208ZM29.2707 84.1357L30.1396 84.6308C27.9093 88.5446 27.2576 93.3379 28.7267 97.9677L27.7735 98.2701L26.8203 98.5726C25.1754 93.3886 25.9071 88.0186 28.4019 83.6406L29.2707 84.1357ZM27.7735 98.2701L28.7267 97.9677C30.1959 102.598 33.4922 106.139 37.5711 108.051L37.1467 108.956L36.7224 109.862C32.1594 107.723 28.4654 103.757 26.8203 98.5726L27.7735 98.2701Z" fill="#1363DE" mask="url(#path-91-inside-45_294_347)"/>
<mask id="path-93-inside-46_294_347" fill="#1363DE">
<path d="M42.653 98.658C46.4364 101.566 51.3761 102.948 56.4503 102.078C61.5245 101.207 65.7203 98.2576 68.318 94.2545C64.5348 91.3469 59.5956 89.9663 54.522 90.8366C49.4479 91.7071 45.2508 94.6551 42.653 98.658Z"/>
</mask>
<path d="M42.653 98.658C46.4364 101.566 51.3761 102.948 56.4503 102.078C61.5245 101.207 65.7203 98.2576 68.318 94.2545C64.5348 91.3469 59.5956 89.9663 54.522 90.8366C49.4479 91.7071 45.2508 94.6551 42.653 98.658Z" fill="#1363DE"/>
<path d="M42.653 98.658L42.0436 99.4508L41.3116 98.8881L41.8142 98.1136L42.653 98.658ZM56.4503 102.078L56.6194 103.063L56.6194 103.063L56.4503 102.078ZM68.318 94.2545L68.9274 93.4617L69.6595 94.0243L69.1569 94.7989L68.318 94.2545ZM54.522 90.8366L54.353 89.851L54.353 89.851L54.522 90.8366ZM42.653 98.658L43.2625 97.8652C46.834 100.611 51.4936 101.913 56.2812 101.092L56.4503 102.078L56.6194 103.063C51.2586 103.983 46.0387 102.522 42.0436 99.4508L42.653 98.658ZM56.4503 102.078L56.2812 101.092C61.0688 100.271 65.0268 97.4893 67.4792 93.7102L68.318 94.2545L69.1569 94.7989C66.4138 99.026 61.9803 102.144 56.6194 103.063L56.4503 102.078ZM68.318 94.2545L67.7086 95.0474C64.1373 92.3026 59.4783 91.001 54.6911 91.8222L54.522 90.8366L54.353 89.851C59.713 88.9316 64.9323 90.3912 68.9274 93.4617L68.318 94.2545ZM54.522 90.8366L54.6911 91.8222C49.9034 92.6435 45.9441 95.4237 43.4919 99.2024L42.653 98.658L41.8142 98.1136C44.5575 93.8865 48.9924 90.7706 54.353 89.851L54.522 90.8366Z" fill="#1363DE" mask="url(#path-93-inside-46_294_347)"/>
<mask id="path-95-inside-47_294_347" fill="#1363DE">
<path d="M44.5096 94.7011C47.2394 90.7872 48.3902 85.7887 47.2858 80.7605C46.1814 75.7327 43.0419 71.6779 38.9236 69.2682C36.1941 73.182 35.0428 78.179 36.147 83.2069C37.2514 88.2353 40.3908 92.2914 44.5096 94.7011Z"/>
</mask>
<path d="M44.5096 94.7011C47.2394 90.7872 48.3902 85.7887 47.2858 80.7605C46.1814 75.7327 43.0419 71.6779 38.9236 69.2682C36.1941 73.182 35.0428 78.179 36.147 83.2069C37.2514 88.2353 40.3908 92.2914 44.5096 94.7011Z" fill="#1363DE"/>
<path d="M44.5096 94.7011L45.3298 95.2731L44.8016 96.0305L44.0046 95.5642L44.5096 94.7011ZM47.2858 80.7605L48.2625 80.5459L48.2625 80.5459L47.2858 80.7605ZM38.9236 69.2682L38.1034 68.6962L38.6316 67.9388L39.4286 68.4051L38.9236 69.2682ZM36.147 83.2069L35.1703 83.4215L35.1703 83.4214L36.147 83.2069ZM44.5096 94.7011L43.6894 94.129C46.2663 90.4343 47.3511 85.7194 46.3091 80.975L47.2858 80.7605L48.2625 80.5459C49.4292 85.8581 48.2125 91.14 45.3298 95.2731L44.5096 94.7011ZM47.2858 80.7605L46.3091 80.975C45.267 76.2312 42.3064 72.4062 38.4186 70.1313L38.9236 69.2682L39.4286 68.4051C43.7774 70.9497 47.0957 75.2341 48.2625 80.5459L47.2858 80.7605ZM38.9236 69.2682L39.7438 69.8403C37.1671 73.5349 36.0819 78.2485 37.1237 82.9924L36.147 83.2069L35.1703 83.4214C34.0037 78.1095 35.2211 72.829 38.1034 68.6962L38.9236 69.2682ZM36.147 83.2069L37.1237 82.9924C38.1658 87.7369 41.1264 91.5632 45.0146 93.8379L44.5096 94.7011L44.0046 95.5642C39.6551 93.0195 36.337 88.7337 35.1703 83.4215L36.147 83.2069Z" fill="#1363DE" mask="url(#path-95-inside-47_294_347)"/>
<mask id="path-97-inside-48_294_347" fill="#1363DE">
<path d="M53.6315 82.5774C57.376 79.6197 59.9223 75.1679 60.3185 70.0352C60.7146 64.9026 58.8812 60.1128 55.635 56.6155C51.8909 59.5733 49.3443 64.0243 48.9481 69.1568C48.552 74.2897 50.385 79.0801 53.6315 82.5774Z"/>
</mask>
<path d="M53.6315 82.5774C57.376 79.6197 59.9223 75.1679 60.3185 70.0352C60.7146 64.9026 58.8812 60.1128 55.635 56.6155C51.8909 59.5733 49.3443 64.0243 48.9481 69.1568C48.552 74.2897 50.385 79.0801 53.6315 82.5774Z" fill="#1363DE"/>
<path d="M53.6315 82.5774L54.2514 83.3621L53.5268 83.9345L52.8986 83.2577L53.6315 82.5774ZM60.3185 70.0352L61.3156 70.1122L61.3156 70.1122L60.3185 70.0352ZM55.635 56.6155L55.0152 55.8308L55.7398 55.2584L56.368 55.9352L55.635 56.6155ZM48.9481 69.1568L47.9511 69.0798L47.9511 69.0798L48.9481 69.1568ZM53.6315 82.5774L53.0117 81.7927C56.5465 79.0006 58.9477 74.8011 59.3215 69.9582L60.3185 70.0352L61.3156 70.1122C60.897 75.5346 58.2055 80.2388 54.2514 83.3621L53.6315 82.5774ZM60.3185 70.0352L59.3215 69.9583C59.6952 65.1155 57.9665 60.5973 54.9021 57.2958L55.635 56.6155L56.368 55.9352C59.7958 59.6283 61.734 64.6897 61.3156 70.1122L60.3185 70.0352ZM55.635 56.6155L56.2549 57.4002C52.7203 60.1925 50.3189 64.3911 49.9452 69.2337L48.9481 69.1568L47.9511 69.0798C48.3696 63.6574 51.0614 58.9542 55.0152 55.8308L55.635 56.6155ZM48.9481 69.1568L49.9452 69.2337C49.5714 74.0769 51.2997 78.5956 54.3644 81.8971L53.6315 82.5774L52.8986 83.2577C49.4703 79.5645 47.5326 74.5025 47.9511 69.0798L48.9481 69.1568Z" fill="#1363DE" mask="url(#path-97-inside-48_294_347)"/>
<mask id="path-99-inside-49_294_347" fill="#1363DE">
<path d="M52.9099 84.8359C56.5307 87.9448 61.3883 89.592 66.5024 88.9969C71.6161 88.4019 75.9653 85.6838 78.7756 81.8272C75.1549 78.719 70.2977 77.0731 65.1842 77.6681C60.0708 78.2631 55.7202 80.9796 52.9099 84.8359Z"/>
</mask>
<path d="M52.9099 84.8359C56.5307 87.9448 61.3883 89.592 66.5024 88.9969C71.6161 88.4019 75.9653 85.6838 78.7756 81.8272C75.1549 78.719 70.2977 77.0731 65.1842 77.6681C60.0708 78.2631 55.7202 80.9796 52.9099 84.8359Z" fill="#1363DE"/>
<path d="M52.9099 84.8359L52.2585 85.5946L51.558 84.9932L52.1017 84.247L52.9099 84.8359ZM66.5024 88.9969L66.618 89.9902L66.618 89.9902L66.5024 88.9969ZM78.7756 81.8272L79.4269 81.0684L80.1275 81.6699L79.5837 82.4161L78.7756 81.8272ZM65.1842 77.6681L65.0686 76.6748L65.0687 76.6748L65.1842 77.6681ZM52.9099 84.8359L53.5614 84.0772C56.9795 87.0121 61.5616 88.565 66.3869 88.0036L66.5024 88.9969L66.618 89.9902C61.215 90.6189 56.0819 88.8775 52.2585 85.5946L52.9099 84.8359ZM66.5024 88.9969L66.3869 88.0036C71.2116 87.4422 75.3144 84.879 77.9674 81.2383L78.7756 81.8272L79.5837 82.4161C76.6162 86.4885 72.0206 89.3616 66.618 89.9902L66.5024 88.9969ZM78.7756 81.8272L78.1242 82.586C74.7063 79.6518 70.1246 78.1 65.2998 78.6614L65.1842 77.6681L65.0687 76.6748C70.4709 76.0462 75.6035 77.7863 79.4269 81.0684L78.7756 81.8272ZM65.1842 77.6681L65.2998 78.6614C60.4749 79.2228 56.3709 81.7846 53.7181 85.4249L52.9099 84.8359L52.1017 84.247C55.0695 80.1746 59.6666 77.3033 65.0686 76.6748L65.1842 77.6681Z" fill="#1363DE" mask="url(#path-99-inside-49_294_347)"/>
<mask id="path-101-inside-50_294_347" fill="#1363DE">
<path d="M65.7428 70.3405C69.1233 68.2188 71.6422 64.7467 72.4345 60.5143C73.2267 56.282 72.1341 52.1339 69.7499 48.9331C66.3697 51.0548 63.8507 54.5263 63.0584 58.7583C62.2662 62.9908 63.3585 67.1397 65.7428 70.3405Z"/>
</mask>
<path d="M65.7428 70.3405C69.1233 68.2188 71.6422 64.7467 72.4345 60.5143C73.2267 56.282 72.1341 52.1339 69.7499 48.9331C66.3697 51.0548 63.8507 54.5263 63.0584 58.7583C62.2662 62.9908 63.3585 67.1397 65.7428 70.3405Z" fill="#1363DE"/>
<path d="M65.7428 70.3405L66.2744 71.1875L65.4924 71.6784L64.9408 70.9379L65.7428 70.3405ZM72.4345 60.5143L73.4174 60.6983L73.4174 60.6983L72.4345 60.5143ZM69.7499 48.9331L69.2183 48.0861L70.0003 47.5952L70.5519 48.3357L69.7499 48.9331ZM63.0584 58.7583L62.0755 58.5743L62.0755 58.5743L63.0584 58.7583ZM65.7428 70.3405L65.2112 69.4935C68.3654 67.5139 70.7127 64.277 71.4515 60.3303L72.4345 60.5143L73.4174 60.6983C72.5716 65.2164 69.8813 68.9238 66.2744 71.1875L65.7428 70.3405ZM72.4345 60.5143L71.4515 60.3303C72.1903 56.3838 71.1725 52.517 68.9479 49.5304L69.7499 48.9331L70.5519 48.3357C73.0956 51.7508 74.2631 56.1802 73.4174 60.6983L72.4345 60.5143ZM69.7499 48.9331L70.2815 49.78C67.1276 51.7597 64.7802 54.9961 64.0414 58.9423L63.0584 58.7583L62.0755 58.5743C62.9213 54.0564 65.6118 50.3498 69.2183 48.0861L69.7499 48.9331ZM63.0584 58.7583L64.0414 58.9423C63.3026 62.8891 64.3201 66.7567 66.5448 69.7432L65.7428 70.3405L64.9408 70.9379C62.3968 67.5227 61.2298 63.0925 62.0755 58.5743L63.0584 58.7583Z" fill="#1363DE" mask="url(#path-101-inside-50_294_347)"/>
<mask id="path-103-inside-51_294_347" fill="#1363DE">
<path d="M66.2162 71.8633C69.0464 74.6775 72.9975 76.3475 77.2995 76.1638C81.6015 75.98 85.3958 73.9792 87.9757 70.9339C85.1456 68.12 81.1951 66.4497 76.8934 66.6334C72.5913 66.8171 68.7961 68.8178 66.2162 71.8633Z"/>
</mask>
<path d="M66.2162 71.8633C69.0464 74.6775 72.9975 76.3475 77.2995 76.1638C81.6015 75.98 85.3958 73.9792 87.9757 70.9339C85.1456 68.12 81.1951 66.4497 76.8934 66.6334C72.5913 66.8171 68.7961 68.8178 66.2162 71.8633Z" fill="#1363DE"/>
<path d="M66.2162 71.8633L65.5111 72.5724L64.8564 71.9214L65.4532 71.217L66.2162 71.8633ZM77.2995 76.1638L77.3422 77.1629L77.3422 77.1629L77.2995 76.1638ZM87.9757 70.9339L88.6808 70.2247L89.3355 70.8758L88.7387 71.5803L87.9757 70.9339ZM76.8934 66.6334L76.8507 65.6343L76.8507 65.6343L76.8934 66.6334ZM66.2162 71.8633L66.9213 71.1542C69.5621 73.78 73.2453 75.336 77.2568 75.1647L77.2995 76.1638L77.3422 77.1629C72.7498 77.359 68.5308 75.575 65.5111 72.5724L66.2162 71.8633ZM77.2995 76.1638L77.2568 75.1647C81.2684 74.9933 84.8055 73.1289 87.2127 70.2875L87.9757 70.9339L88.7387 71.5803C85.9861 74.8294 81.9346 76.9667 77.3422 77.1629L77.2995 76.1638ZM87.9757 70.9339L87.2706 71.643C84.6299 69.0174 80.9472 67.4612 76.9361 67.6325L76.8934 66.6334L76.8507 65.6343C81.443 65.4382 85.6613 67.2225 88.6808 70.2247L87.9757 70.9339ZM76.8934 66.6334L76.9361 67.6325C72.9243 67.8038 69.3864 69.6682 66.9793 72.5097L66.2162 71.8633L65.4532 71.217C68.2059 67.9675 72.2582 65.8305 76.8507 65.6343L76.8934 66.6334Z" fill="#1363DE" mask="url(#path-103-inside-51_294_347)"/>
<mask id="path-105-inside-52_294_347" fill="#1363DE">
<path d="M80.5941 60.4759C84.4806 61.384 88.7199 60.7293 92.2841 58.3132C95.8481 55.897 98.0257 52.2012 98.6213 48.2547C94.7348 47.3469 90.4953 48.0013 86.9313 50.4175C83.3674 52.8338 81.1896 56.5294 80.5941 60.4759Z"/>
</mask>
<path d="M80.5941 60.4759C84.4806 61.384 88.7199 60.7293 92.2841 58.3132C95.8481 55.897 98.0257 52.2012 98.6213 48.2547C94.7348 47.3469 90.4953 48.0013 86.9313 50.4175C83.3674 52.8338 81.1896 56.5294 80.5941 60.4759Z" fill="#1363DE"/>
<path d="M80.5941 60.4759L80.3666 61.4497L79.4675 61.2396L79.6053 60.3267L80.5941 60.4759ZM92.2841 58.3132L92.8452 59.1409L92.8452 59.1409L92.2841 58.3132ZM98.6213 48.2547L98.8488 47.2809L99.7479 47.491L99.6101 48.404L98.6213 48.2547ZM86.9313 50.4175L86.3702 49.5898L86.3702 49.5898L86.9313 50.4175ZM80.5941 60.4759L80.8216 59.5021C84.4479 60.3494 88.3994 59.7384 91.7229 57.4854L92.2841 58.3132L92.8452 59.1409C89.0405 61.7201 84.5133 62.4185 80.3666 61.4497L80.5941 60.4759ZM92.2841 58.3132L91.7229 57.4854C95.0463 55.2324 97.0767 51.7878 97.6325 48.1055L98.6213 48.2547L99.6101 48.404C98.9746 52.6146 96.6499 56.5616 92.8452 59.1409L92.2841 58.3132ZM98.6213 48.2547L98.3938 49.2285C94.7675 48.3815 90.8158 48.9922 87.4925 51.2452L86.9313 50.4175L86.3702 49.5898C90.1748 47.0105 94.7022 46.3124 98.8488 47.2809L98.6213 48.2547ZM86.9313 50.4175L87.4925 51.2452C84.1691 53.4984 82.1385 56.9429 81.5829 60.6251L80.5941 60.4759L79.6053 60.3267C80.2406 56.116 82.5656 52.1692 86.3702 49.5898L86.9313 50.4175Z" fill="#1363DE" mask="url(#path-105-inside-52_294_347)"/>
<path d="M159.295 134.545C158.784 130.227 156.71 126.875 153.074 124.489C149.438 122.102 144.977 120.909 139.693 120.909C135.83 120.909 132.449 121.534 129.551 122.784C126.682 124.034 124.438 125.753 122.818 127.94C121.227 130.128 120.432 132.614 120.432 135.398C120.432 137.727 120.986 139.73 122.094 141.406C123.23 143.054 124.679 144.432 126.44 145.54C128.202 146.619 130.048 147.514 131.98 148.224C133.912 148.906 135.688 149.46 137.307 149.886L146.17 152.273C148.443 152.869 150.972 153.693 153.756 154.744C156.568 155.795 159.253 157.23 161.81 159.048C164.395 160.838 166.526 163.139 168.202 165.952C169.878 168.764 170.716 172.216 170.716 176.307C170.716 181.023 169.48 185.284 167.009 189.091C164.565 192.898 160.986 195.923 156.27 198.168C151.582 200.412 145.886 201.534 139.182 201.534C132.932 201.534 127.52 200.526 122.946 198.509C118.401 196.491 114.821 193.679 112.207 190.071C109.622 186.463 108.159 182.273 107.818 177.5H118.727C119.011 180.795 120.119 183.523 122.051 185.682C124.011 187.812 126.483 189.403 129.466 190.455C132.477 191.477 135.716 191.989 139.182 191.989C143.216 191.989 146.838 191.335 150.048 190.028C153.259 188.693 155.801 186.847 157.676 184.489C159.551 182.102 160.489 179.318 160.489 176.136C160.489 173.239 159.679 170.881 158.06 169.062C156.44 167.244 154.31 165.767 151.668 164.631C149.026 163.494 146.17 162.5 143.102 161.648L132.364 158.58C125.545 156.619 120.148 153.821 116.17 150.185C112.193 146.548 110.205 141.79 110.205 135.909C110.205 131.023 111.526 126.761 114.168 123.125C116.838 119.46 120.418 116.619 124.906 114.602C129.423 112.557 134.466 111.534 140.034 111.534C145.659 111.534 150.659 112.543 155.034 114.56C159.409 116.548 162.875 119.276 165.432 122.741C168.017 126.207 169.381 130.142 169.523 134.545H159.295Z" fill="#1363DE"/>
<path d="M128.079 52.4314L118.881 51.8191V60.4041L111.522 63.4705L125.626 68.6824L129.919 65.3103L131.759 67.1492V69.6023L134.212 69.9089L140.651 76.0417L151.075 86.1599H153.222L152.915 83.0935L155.368 80.0281H156.902V78.1882L149.543 71.4421L148.317 72.0554V73.282L145.557 76.0417L136.664 67.4558V65.3103L134.212 65.0037L132.066 63.1638L136.664 58.5642L130.839 44.7664L128.079 52.4314ZM154.207 77.6033L151.448 80.6687L151.075 80.3347L150.704 79.9998L153.463 76.9333L154.207 77.6033ZM151.142 75.1501L148.382 78.2156L148.01 77.8816L147.639 77.5466L150.398 74.4802L151.142 75.1501ZM132.985 58.8708C132.738 59.1174 128.181 63.471 125.933 65.6169L119.8 63.7771L124.093 61.9373V56.4177H129.918L131.145 52.1248L132.985 58.8708Z" fill="#1363DE"/>
<path d="M150.157 52.4315L159.355 51.8192V60.4042L166.714 63.4706L152.61 68.6825L148.317 65.3104L146.477 67.1493V69.6024L144.024 69.9091L137.585 76.0419L127.161 86.16H125.014L125.321 83.0936L122.868 80.0282H121.334V78.1884L128.693 71.4423L129.919 72.0555V73.2821L132.679 76.0419L141.572 67.4559V65.3104L144.024 65.0038L146.17 63.1639L141.572 58.5643L147.397 44.7665L150.157 52.4315ZM124.028 77.6034L126.788 80.6688L127.16 80.3348L127.531 79.9999L124.772 76.9335L124.028 77.6034ZM127.095 75.1503L129.855 78.2157L130.227 77.8817L130.598 77.5468L127.839 74.4803L127.095 75.1503ZM145.251 58.871C145.497 59.1169 150.055 63.4709 152.303 65.6171L158.436 63.7772L154.143 61.9374V56.4178H148.318L147.091 52.1249L145.251 58.871Z" fill="#1363DE"/>
<path d="M162.643 34.5295C147.313 30.6784 131.278 30.5998 115.911 34.3005L116.844 38.1717C131.585 34.6217 146.967 34.6971 161.673 38.3914L162.643 34.5295Z" fill="#1363DE"/>
<path d="M161.413 39.1349C146.85 35.6762 131.688 35.6059 117.093 38.9295L117.533 40.8603C131.832 37.604 146.688 37.6729 160.956 41.0616L161.413 39.1349Z" fill="#1363DE"/>
<path d="M153.224 16.251L175.914 8.27832L163.649 32.1953L157.516 31.582L163.649 18.7041L149.238 24.2227L139.12 11.6514L128.694 23.6094L113.976 18.0908L121.029 31.582L115.816 32.8086L102.938 8.27832L125.014 16.251L139.12 0L153.224 16.251ZM139.038 3.6709L127.307 18.1074L112.314 12.4111L112.216 12.3848C111.987 12.3473 111.754 12.4752 111.668 12.7012C111.583 12.9268 111.671 13.1764 111.868 13.3008L111.958 13.3457L127.29 19.1719L127.627 19.2998L127.855 19.0195L139.429 4.77246L151.306 19.0244L151.535 19.2988L151.869 19.1709L166.28 13.6514C166.537 13.5526 166.666 13.2636 166.568 13.0059C166.469 12.7483 166.18 12.6192 165.922 12.7178L151.845 18.1084L139.809 3.66602L139.42 3.19922L139.038 3.6709Z" fill="#1363DE"/>
<path d="M15.44 285.394V305.714H26.736V308.306H12.528V285.394H15.44ZM44.8128 285.394H47.7248V301.106C47.7248 303.58 46.8181 305.5 45.0048 306.866C43.4474 308.06 41.4101 308.658 38.8928 308.658C35.9914 308.658 33.7514 307.9 32.1727 306.386C30.8074 305.042 30.1248 303.282 30.1248 301.106V285.394H33.0368V301.106C33.0368 302.684 33.5488 303.911 34.5728 304.786C35.5968 305.639 37.0368 306.066 38.8928 306.066C40.8554 306.066 42.3701 305.575 43.4368 304.594C44.3541 303.719 44.8128 302.556 44.8128 301.106V285.394ZM62.4443 296.562L70.5723 308.306H66.9243L60.7163 298.738L54.4123 308.306H50.8603L58.9883 296.562L51.3723 285.394H54.9243L60.7803 294.386L66.7003 285.394H70.1883L62.4443 296.562ZM88.469 285.394H91.381V301.106C91.381 303.58 90.4743 305.5 88.661 306.866C87.1037 308.06 85.0663 308.658 82.549 308.658C79.6477 308.658 77.4077 307.9 75.829 306.386C74.4637 305.042 73.781 303.282 73.781 301.106V285.394H76.693V301.106C76.693 302.684 77.205 303.911 78.229 304.786C79.253 305.639 80.693 306.066 82.549 306.066C84.5117 306.066 86.0263 305.575 87.093 304.594C88.0103 303.719 88.469 302.556 88.469 301.106V285.394ZM99.6365 298.45V308.306H96.7245V285.394H107.253C109.685 285.394 111.498 285.991 112.693 287.186C113.738 288.231 114.261 289.682 114.261 291.538C114.261 292.839 113.973 293.916 113.397 294.77C112.842 295.623 111.914 296.37 110.613 297.01C111.658 297.415 112.426 297.959 112.917 298.642C113.407 299.346 113.685 300.786 113.749 302.962C113.791 304.562 113.887 305.639 114.037 306.194C114.207 306.727 114.57 307.186 115.125 307.57V308.306H111.605C111.135 307.324 110.901 306.29 110.901 305.202L110.933 301.618C110.933 301.383 110.837 301.02 110.645 300.53C110.453 300.039 110.271 299.687 110.101 299.474C109.525 298.791 108.543 298.45 107.157 298.45H99.6365ZM99.6365 295.858H106.709C109.717 295.858 111.221 294.546 111.221 291.922C111.221 289.298 109.717 287.986 106.709 287.986H99.6365V295.858ZM128.66 299.314V308.306H125.748V299.314L116.916 285.394H120.5L127.252 296.562L133.78 285.394H137.268L128.66 299.314ZM160.656 297.874H148.848V308.306H145.936V285.394H148.848V295.282H160.656V285.394H163.568V308.306H160.656V297.874ZM178.287 285.042C181.829 285.042 184.623 286.268 186.671 288.722C188.442 290.855 189.327 293.564 189.327 296.85C189.327 300.626 188.186 303.612 185.903 305.81C183.898 307.708 181.359 308.658 178.287 308.658C174.725 308.658 171.919 307.431 169.871 304.978C168.101 302.844 167.215 300.135 167.215 296.85C167.215 293.074 168.367 290.087 170.671 287.89C172.655 285.991 175.194 285.042 178.287 285.042ZM178.255 287.634C175.653 287.634 173.594 288.583 172.079 290.482C170.778 292.146 170.127 294.268 170.127 296.85C170.127 299.815 170.97 302.151 172.655 303.858C174.127 305.33 175.994 306.066 178.255 306.066C180.879 306.066 182.949 305.116 184.463 303.218C185.765 301.554 186.415 299.431 186.415 296.85C186.415 293.884 185.573 291.548 183.887 289.842C182.415 288.37 180.538 287.634 178.255 287.634ZM201.605 287.986V308.306H198.693V287.986H191.141V285.394H209.093V287.986H201.605ZM215.384 297.874V305.714H228.888V308.306H212.472V285.394H228.344V287.986H215.384V295.282H227.864V297.874H215.384ZM236.065 285.394V305.714H247.361V308.306H233.153V285.394H236.065Z" fill="#1363DE"/>
</svg>
